<?xml version="1.0" encoding="UTF-8"?>
<svg xmlns="http://www.w3.org/2000/svg" width="1000" height="620"
     viewBox="0 0 1000 620" role="img"
     aria-labelledby="chart-title chart-description">
    <title id="chart-title">GPT-6 Astra ARC-AGI-3 scores by harness</title>
    <desc id="chart-description">
        The Standard harness score rises from 17.45 percent at low reasoning
        to 62.71 percent at max reasoning. The Provider Adapter score stays
        nearly flat between 98.03 and 99.95 percent.
    </desc>

    <rect width="1000" height="620" fill="#fbfaf7"/>

    <text x="70" y="38" fill="#171717" font-family="system-ui, sans-serif"
          font-size="24" font-weight="700">
        GPT-6 Astra on ARC-AGI-3
    </text>
    <text x="70" y="64" fill="#525252" font-family="system-ui, sans-serif"
          font-size="15">
        Provider-specific state machinery erases the normal reasoning-effort curve
    </text>

    <g stroke="#dedbd4" stroke-width="1">
        <line x1="110" y1="520" x2="930" y2="520"/>
        <line x1="110" y1="430" x2="930" y2="430"/>
        <line x1="110" y1="340" x2="930" y2="340"/>
        <line x1="110" y1="250" x2="930" y2="250"/>
        <line x1="110" y1="160" x2="930" y2="160"/>
        <line x1="110" y1="70" x2="930" y2="70"/>
    </g>

    <g fill="#525252" font-family="system-ui, sans-serif" font-size="13"
       text-anchor="end">
        <text x="98" y="525">0%</text>
        <text x="98" y="435">20%</text>
        <text x="98" y="345">40%</text>
        <text x="98" y="255">60%</text>
        <text x="98" y="165">80%</text>
        <text x="98" y="75">100%</text>
    </g>

    <line x1="110" y1="70" x2="110" y2="520" stroke="#737373"
          stroke-width="1.5"/>
    <line x1="110" y1="520" x2="930" y2="520" stroke="#737373"
          stroke-width="1.5"/>

    <g fill="#3f3f46" font-family="system-ui, sans-serif" font-size="14"
       text-anchor="middle">
        <text x="160" y="548">Low</text>
        <text x="340" y="548">Medium</text>
        <text x="520" y="548">High</text>
        <text x="700" y="548">XHigh</text>
        <text x="880" y="548">Max</text>
        <text x="520" y="585" font-size="15" font-weight="600">
            Reasoning effort
        </text>
    </g>

    <text x="27" y="315" fill="#3f3f46" font-family="system-ui, sans-serif"
          font-size="15" font-weight="600" text-anchor="middle"
          transform="rotate(-90 27 315)">
        ARC-AGI-3 score
    </text>

    <polyline fill="none" stroke="#2563eb" stroke-width="4"
              stroke-linecap="round" stroke-linejoin="round"
              points="160,441.5 340,346.3 520,273.3 700,253.0 880,237.8"/>
    <polyline fill="none" stroke="#dc2626" stroke-width="4"
              stroke-linecap="round" stroke-linejoin="round"
              points="160,78.9 340,77.0 520,70.2 700,77.0 880,76.5"/>

    <g fill="#2563eb" stroke="#fbfaf7" stroke-width="2">
        <circle cx="160" cy="441.5" r="6"/>
        <circle cx="340" cy="346.3" r="6"/>
        <circle cx="520" cy="273.3" r="6"/>
        <circle cx="700" cy="253.0" r="6"/>
        <circle cx="880" cy="237.8" r="6"/>
    </g>
    <g fill="#dc2626" stroke="#fbfaf7" stroke-width="2">
        <circle cx="160" cy="78.9" r="6"/>
        <circle cx="340" cy="77.0" r="6"/>
        <circle cx="520" cy="70.2" r="6"/>
        <circle cx="700" cy="77.0" r="6"/>
        <circle cx="880" cy="76.5" r="6"/>
    </g>

    <g font-family="system-ui, sans-serif" font-size="14">
        <rect x="125" y="103" width="344" height="76" rx="8"
              fill="#ffffff" stroke="#dedbd4"/>
        <line x1="146" y1="127" x2="184" y2="127" stroke="#dc2626"
              stroke-width="4" stroke-linecap="round"/>
        <circle cx="165" cy="127" r="5" fill="#dc2626"/>
        <text x="196" y="132" fill="#171717" font-weight="600">
            Provider Adapter: 98.03–99.95%
        </text>
        <line x1="146" y1="154" x2="184" y2="154" stroke="#2563eb"
              stroke-width="4" stroke-linecap="round"/>
        <circle cx="165" cy="154" r="5" fill="#2563eb"/>
        <text x="196" y="159" fill="#171717" font-weight="600">
            Standard harness: 17.45–62.71%
        </text>
    </g>

    <g font-family="system-ui, sans-serif">
        <rect x="655" y="112" width="246" height="76" rx="8"
              fill="#fff7ed" stroke="#fdba74"/>
        <text x="778" y="134" fill="#9a3412" font-size="14"
              font-weight="700" text-anchor="middle">
            Adapter low-to-max spread
        </text>
        <text x="778" y="156" fill="#9a3412" font-size="16"
              font-weight="700" text-anchor="middle">
            only 1.92 points
        </text>
        <text x="778" y="177" fill="#9a3412" font-size="13"
              font-weight="600" text-anchor="middle">
            Effort slope: +0.10
        </text>

        <rect x="655" y="333" width="246" height="76" rx="8"
              fill="#eff6ff" stroke="#93c5fd"/>
        <text x="778" y="355" fill="#1e40af" font-size="14"
              font-weight="700" text-anchor="middle">
            Standard low-to-max spread
        </text>
        <text x="778" y="377" fill="#1e40af" font-size="16"
              font-weight="700" text-anchor="middle">
            45.26 points
        </text>
        <text x="778" y="398" fill="#1e40af" font-size="13"
              font-weight="600" text-anchor="middle">
            Effort slope: +11.13
        </text>
    </g>

    <text x="110" y="608" fill="#737373" font-family="system-ui, sans-serif"
          font-size="12">
        Source: ARC Prize verified GPT-6 Astra results. Supported effort levels shown.
    </text>
</svg>
