<svg width="800" height="500" xmlns="http://www.w3.org/2000/svg" font-family="sans-serif">
<rect x="0" y="0" width="800" height="500" fill="white"/>
<line x1="60" y1="440.0" x2="740" y2="440.0" stroke="black"/>
<line x1="60" y1="60" x2="60" y2="440" stroke="black"/>
<line x1="60.0" y1="440.0" x2="60.0" y2="445.0" stroke="black"/>
<text x="60.0" y="460.0" font-size="8" text-anchor="middle">0</text>
<line x1="94.0" y1="440.0" x2="94.0" y2="445.0" stroke="black"/>
<text x="94.0" y="460.0" font-size="8" text-anchor="middle">5</text>
<line x1="128.0" y1="440.0" x2="128.0" y2="445.0" stroke="black"/>
<text x="128.0" y="460.0" font-size="8" text-anchor="middle">10</text>
<line x1="162.0" y1="440.0" x2="162.0" y2="445.0" stroke="black"/>
<text x="162.0" y="460.0" font-size="8" text-anchor="middle">15</text>
<line x1="196.0" y1="440.0" x2="196.0" y2="445.0" stroke="black"/>
<text x="196.0" y="460.0" font-size="8" text-anchor="middle">20</text>
<line x1="230.0" y1="440.0" x2="230.0" y2="445.0" stroke="black"/>
<text x="230.0" y="460.0" font-size="8" text-anchor="middle">25</text>
<line x1="264.0" y1="440.0" x2="264.0" y2="445.0" stroke="black"/>
<text x="264.0" y="460.0" font-size="8" text-anchor="middle">30</text>
<line x1="298.0" y1="440.0" x2="298.0" y2="445.0" stroke="black"/>
<text x="298.0" y="460.0" font-size="8" text-anchor="middle">35</text>
<line x1="332.0" y1="440.0" x2="332.0" y2="445.0" stroke="black"/>
<text x="332.0" y="460.0" font-size="8" text-anchor="middle">40</text>
<line x1="366.0" y1="440.0" x2="366.0" y2="445.0" stroke="black"/>
<text x="366.0" y="460.0" font-size="8" text-anchor="middle">45</text>
<line x1="400.0" y1="440.0" x2="400.0" y2="445.0" stroke="black"/>
<text x="400.0" y="460.0" font-size="8" text-anchor="middle">50</text>
<line x1="434.00000000000006" y1="440.0" x2="434.00000000000006" y2="445.0" stroke="black"/>
<text x="434.00000000000006" y="460.0" font-size="8" text-anchor="middle">55</text>
<line x1="468.0" y1="440.0" x2="468.0" y2="445.0" stroke="black"/>
<text x="468.0" y="460.0" font-size="8" text-anchor="middle">60</text>
<line x1="502.0" y1="440.0" x2="502.0" y2="445.0" stroke="black"/>
<text x="502.0" y="460.0" font-size="8" text-anchor="middle">65</text>
<line x1="536.0" y1="440.0" x2="536.0" y2="445.0" stroke="black"/>
<text x="536.0" y="460.0" font-size="8" text-anchor="middle">70</text>
<line x1="570.0" y1="440.0" x2="570.0" y2="445.0" stroke="black"/>
<text x="570.0" y="460.0" font-size="8" text-anchor="middle">75</text>
<line x1="604.0" y1="440.0" x2="604.0" y2="445.0" stroke="black"/>
<text x="604.0" y="460.0" font-size="8" text-anchor="middle">80</text>
<line x1="638.0" y1="440.0" x2="638.0" y2="445.0" stroke="black"/>
<text x="638.0" y="460.0" font-size="8" text-anchor="middle">85</text>
<line x1="672.0" y1="440.0" x2="672.0" y2="445.0" stroke="black"/>
<text x="672.0" y="460.0" font-size="8" text-anchor="middle">90</text>
<line x1="706.0" y1="440.0" x2="706.0" y2="445.0" stroke="black"/>
<text x="706.0" y="460.0" font-size="8" text-anchor="middle">95</text>
<line x1="740.0" y1="440.0" x2="740.0" y2="445.0" stroke="black"/>
<text x="740.0" y="460.0" font-size="8" text-anchor="middle">100</text>
<line x1="60" y1="440.0" x2="55" y2="440.0" stroke="black"/>
<text x="50" y="443.0" font-size="8" text-anchor="end">10^0</text>
<line x1="60" y1="324.8844147132431" x2="55" y2="324.8844147132431" stroke="black"/>
<text x="50" y="327.8844147132431" font-size="8" text-anchor="end">10^1</text>
<line x1="60" y1="209.76882942648606" x2="55" y2="209.76882942648606" stroke="black"/>
<text x="50" y="212.76882942648606" font-size="8" text-anchor="end">10^2</text>
<line x1="60" y1="94.65324413972914" x2="55" y2="94.65324413972914" stroke="black"/>
<text x="50" y="97.65324413972914" font-size="8" text-anchor="end">10^3</text>
<line x1="60" y1="-20.462341147027857" x2="55" y2="-20.462341147027857" stroke="black"/>
<text x="50" y="-17.462341147027857" font-size="8" text-anchor="end">10^4</text>
<circle cx="395.24" cy="440.0" r="3" fill="red"/>
<circle cx="244.28" cy="435.23505682142047" r="3" fill="blue"/>
<circle cx="491.12" cy="385.0759075101942" r="3" fill="red"/>
<circle cx="485.0" cy="342.71604449906766" r="3" fill="blue"/>
<circle cx="242.24" cy="385.0759075101942" r="3" fill="blue"/>
<circle cx="531.9200000000001" cy="336.0402675808127" r="3" fill="blue"/>
<circle cx="626.4399999999999" cy="266.7337793013545" r="3" fill="blue"/>
<circle cx="512.8799999999999" cy="336.0402675808127" r="3" fill="blue"/>
<circle cx="497.92" cy="336.0402675808127" r="3" fill="blue"/>
<circle cx="544.8399999999999" cy="330.15181502038837" r="3" fill="blue"/>
<circle cx="556.4" cy="320.1194715346635" r="3" fill="blue"/>
<circle cx="371.44" cy="342.71604449906766" r="3" fill="blue"/>
<circle cx="424.48" cy="311.7677590229064" r="3" fill="blue"/>
<circle cx="571.36" cy="275.2277225305826" r="3" fill="blue"/>
<circle cx="567.96" cy="260.8453267409302" r="3" fill="blue"/>
<circle cx="548.9200000000001" cy="256.84366653310053" r="3" fill="blue"/>
<circle cx="644.8" cy="227.60045921231068" r="3" fill="blue"/>
<circle cx="645.48" cy="226.1920826012011" r="3" fill="blue"/>
<circle cx="627.8" cy="227.60045921231068" r="3" fill="blue"/>
<circle cx="632.5600000000001" cy="226.1920826012011" r="3" fill="blue"/>
<circle cx="617.6" cy="226.1920826012011" r="3" fill="blue"/>
<circle cx="600.6" cy="227.60045921231068" r="3" fill="blue"/>
<circle cx="597.2" cy="227.60045921231068" r="3" fill="blue"/>
<circle cx="534.64" cy="227.60045921231068" r="3" fill="blue"/>
<circle cx="591.76" cy="266.7337793013545" r="3" fill="blue"/>
<circle cx="501.32" cy="275.2277225305826" r="3" fill="blue"/>
<circle cx="562.5200000000001" cy="266.7337793013545" r="3" fill="blue"/>
<circle cx="677.4399999999999" cy="114.6001826474898" r="3" fill="red"/>
<circle cx="593.12" cy="287.7919520092619" r="3" fill="blue"/>
<circle cx="652.28" cy="259.47554068632655" r="3" fill="blue"/>
<circle cx="644.8" cy="215.03622973363144" r="3" fill="blue"/>
<circle cx="536.0" cy="184.13069249733093" r="3" fill="blue"/>
<circle cx="556.4" cy="152.5644821421958" r="3" fill="blue"/>
<circle cx="595.16" cy="148.58732282359517" r="3" fill="blue"/>
<circle cx="579.52" cy="266.7337793013545" r="3" fill="blue"/>
<circle cx="657.04" cy="166.41895260941976" r="3" fill="blue"/>
<circle cx="532.5999999999999" cy="370.6935117205418" r="3" fill="red"/>
<circle cx="567.96" cy="336.0402675808127" r="3" fill="red"/>
<circle cx="593.8000000000001" cy="308.06280035933855" r="3" fill="red"/>
<circle cx="670.64" cy="266.7337793013545" r="3" fill="red"/>
<circle cx="639.36" cy="139.84128889374898" r="3" fill="blue"/>
<circle cx="672.0" cy="72.42159296688541" r="3" fill="blue"/>
<circle cx="614.88" cy="65.26740030714538" r="3" fill="blue"/>
<circle cx="623.72" cy="65.26740030714538" r="3" fill="blue"/>
<circle cx="663.16" cy="65.26740030714538" r="3" fill="blue"/>
<circle cx="647.5200000000001" cy="65.26740030714538" r="3" fill="blue"/>
<circle cx="650.24" cy="60.0" r="3" fill="blue"/>
<circle cx="666.5600000000001" cy="167.0531352799694" r="3" fill="blue"/>
<circle cx="560.48" cy="290.23117057351396" r="3" fill="blue"/>
<circle cx="599.2399999999999" cy="200.65383394397904" r="3" fill="blue"/>
<polyline fill="none" stroke="gray" stroke-width="1" points="395.24,440.0 491.12,385.0759075101942 532.5999999999999,370.6935117205418 567.96,336.0402675808127 593.8000000000001,308.06280035933855 670.64,266.7337793013545 677.4399999999999,114.6001826474898"/>
<text x="567.96" y="326.0402675808127" font-size="10" text-anchor="middle">Frontier</text>
<line x1="650.24" y1="60.0" x2="120.14418604651163" y2="60.0" stroke="gray" stroke-width="0.5"/>
<text x="65" y="66.00930232558139" font-size="7.069767441860465" text-anchor="start">Claude 3 Opus</text>
<line x1="614.88" y1="65.26740030714538" x2="111.66046511627906" y2="68.87929125138427" stroke="gray" stroke-width="0.5"/>
<text x="65" y="74.88859357696568" font-size="7.069767441860465" text-anchor="start">GPT-04-mini</text>
<line x1="623.72" y1="65.26740030714538" x2="90.45116279069768" y2="77.75858250276855" stroke="gray" stroke-width="0.5"/>
<text x="65" y="83.76788482834995" font-size="7.069767441860465" text-anchor="start">GPT-o3</text>
<line x1="663.16" y1="65.26740030714538" x2="90.45116279069768" y2="86.63787375415282" stroke="gray" stroke-width="0.5"/>
<text x="65" y="92.64717607973422" font-size="7.069767441860465" text-anchor="start">GPT-4o</text>
<line x1="647.5200000000001" y1="65.26740030714538" x2="86.20930232558139" y2="95.5171650055371" stroke="gray" stroke-width="0.5"/>
<text x="65" y="101.5264673311185" font-size="7.069767441860465" text-anchor="start">GPT-4</text>
<line x1="672.0" y1="72.42159296688541" x2="115.90232558139536" y2="104.39645625692137" stroke="gray" stroke-width="0.5"/>
<text x="65" y="110.40575858250277" font-size="7.069767441860465" text-anchor="start">Gemini Ultra</text>
<line x1="639.36" y1="139.84128889374898" x2="115.90232558139536" y2="113.27574750830566" stroke="gray" stroke-width="0.5"/>
<text x="65" y="119.28504983388706" font-size="7.069767441860465" text-anchor="start">Llama 3 405B</text>
<line x1="595.16" y1="148.58732282359517" x2="166.80465116279072" y2="122.15503875968993" stroke="gray" stroke-width="0.5"/>
<text x="65" y="128.16434108527133" font-size="7.069767441860465" text-anchor="start">Nemotron-4-340B-Instruct</text>
<line x1="556.4" y1="152.5644821421958" x2="90.45116279069768" y2="131.03433001107422" stroke="gray" stroke-width="0.5"/>
<text x="65" y="137.0436323366556" font-size="7.069767441860465" text-anchor="start">Grok-1</text>
<line x1="657.04" y1="166.41895260941976" x2="111.66046511627906" y2="139.9136212624585" stroke="gray" stroke-width="0.5"/>
<text x="65" y="145.92292358803988" font-size="7.069767441860465" text-anchor="start">Qwen 3-235B</text>
<line x1="666.5600000000001" y1="167.0531352799694" x2="107.41860465116278" y2="148.79291251384277" stroke="gray" stroke-width="0.5"/>
<text x="65" y="154.80221483942415" font-size="7.069767441860465" text-anchor="start">Qwen3-235B</text>
<line x1="536.0" y1="184.13069249733093" x2="94.69302325581396" y2="157.67220376522704" stroke="gray" stroke-width="0.5"/>
<text x="65" y="163.68150609080843" font-size="7.069767441860465" text-anchor="start">GPT-3.5</text>
<line x1="599.2399999999999" y1="200.65383394397904" x2="115.90232558139536" y2="166.5514950166113" stroke="gray" stroke-width="0.5"/>
<text x="65" y="172.5607973421927" font-size="7.069767441860465" text-anchor="start">GPT-OSS-120B</text>
<line x1="644.8" y1="215.03622973363144" x2="120.14418604651163" y2="175.4307862679956" stroke="gray" stroke-width="0.5"/>
<text x="65" y="181.44008859357697" font-size="7.069767441860465" text-anchor="start">Llama-3.2-90B</text>
<line x1="645.48" y1="226.1920826012011" x2="111.66046511627906" y2="184.31007751937986" stroke="gray" stroke-width="0.5"/>
<text x="65" y="190.31937984496125" font-size="7.069767441860465" text-anchor="start">Qwen2.5 72B</text>
<line x1="632.5600000000001" y1="226.1920826012011" x2="103.1767441860465" y2="193.18936877076413" stroke="gray" stroke-width="0.5"/>
<text x="65" y="199.19867109634552" font-size="7.069767441860465" text-anchor="start">Qwen2 72B</text>
<line x1="617.6" y1="226.1920826012011" x2="107.41860465116278" y2="202.0686600221484" stroke="gray" stroke-width="0.5"/>
<text x="65" y="208.0779623477298" font-size="7.069767441860465" text-anchor="start">NVLM-D-72B</text>
<line x1="644.8" y1="227.60045921231068" x2="120.14418604651163" y2="210.94795127353268" stroke="gray" stroke-width="0.5"/>
<text x="65" y="216.95725359911407" font-size="7.069767441860465" text-anchor="start">Llama 3.1 70B</text>
<line x1="627.8" y1="227.60045921231068" x2="209.22325581395347" y2="219.82724252491695" stroke="gray" stroke-width="0.5"/>
<text x="65" y="225.83654485049834" font-size="7.069767441860465" text-anchor="start">Llama-3.1-Nemotron-70B-Instruct-HF</text>
<line x1="600.6" y1="227.60045921231068" x2="111.66046511627906" y2="228.70653377630123" stroke="gray" stroke-width="0.5"/>
<text x="65" y="234.71583610188262" font-size="7.069767441860465" text-anchor="start">Llama 3 70B</text>
<line x1="597.2" y1="227.60045921231068" x2="128.62790697674419" y2="237.5858250276855" stroke="gray" stroke-width="0.5"/>
<text x="65" y="243.5951273532669" font-size="7.069767441860465" text-anchor="start">Claude 3 Sonnet</text>
<line x1="534.64" y1="227.60045921231068" x2="128.62790697674419" y2="246.46511627906978" stroke="gray" stroke-width="0.5"/>
<text x="65" y="252.47441860465116" font-size="7.069767441860465" text-anchor="start">LLaMA2-70B Base</text>
<line x1="548.9200000000001" y1="256.84366653310053" x2="141.353488372093" y2="255.34440753045408" stroke="gray" stroke-width="0.5"/>
<text x="65" y="261.35370985603544" font-size="7.069767441860465" text-anchor="start">Mixtral Large Base</text>
<line x1="652.28" y1="259.47554068632655" x2="111.66046511627906" y2="264.2236987818383" stroke="gray" stroke-width="0.5"/>
<text x="65" y="270.2330011074197" font-size="7.069767441860465" text-anchor="start">Deepseek-v3</text>
<line x1="567.96" y1="260.8453267409302" x2="81.96744186046512" y2="273.1029900332226" stroke="gray" stroke-width="0.5"/>
<text x="65" y="279.112292358804" font-size="7.069767441860465" text-anchor="start">DBRX</text>
<line x1="626.4399999999999" y1="266.7337793013545" x2="111.66046511627906" y2="281.9822812846069" stroke="gray" stroke-width="0.5"/>
<text x="65" y="287.9915836101883" font-size="7.069767441860465" text-anchor="start">Qwen2.5-32b</text>
<line x1="591.76" y1="266.7337793013545" x2="94.69302325581396" y2="290.8615725359912" stroke="gray" stroke-width="0.5"/>
<text x="65" y="296.87087486157253" font-size="7.069767441860465" text-anchor="start">QwQ-32B</text>
<line x1="562.5200000000001" y1="266.7337793013545" x2="90.45116279069768" y2="299.7408637873755" stroke="gray" stroke-width="0.5"/>
<text x="65" y="305.75016611295683" font-size="7.069767441860465" text-anchor="start">R1-32B</text>
<line x1="579.52" y1="266.7337793013545" x2="94.69302325581396" y2="308.6201550387597" stroke="gray" stroke-width="0.5"/>
<text x="65" y="314.6294573643411" font-size="7.069767441860465" text-anchor="start">QWQ-32B</text>
<line x1="571.36" y1="275.2277225305826" x2="111.66046511627906" y2="317.49944629014396" stroke="gray" stroke-width="0.5"/>
<text x="65" y="323.5087486157253" font-size="7.069767441860465" text-anchor="start">Gemma 2 27B</text>
<line x1="501.32" y1="275.2277225305826" x2="111.66046511627906" y2="326.37873754152827" stroke="gray" stroke-width="0.5"/>
<text x="65" y="332.3880398671096" font-size="7.069767441860465" text-anchor="start">Gemma-3-27B</text>
<line x1="593.12" y1="287.7919520092619" x2="111.66046511627906" y2="335.2580287929125" stroke="gray" stroke-width="0.5"/>
<text x="65" y="341.26733111849387" font-size="7.069767441860465" text-anchor="start">DeepSeek-v2</text>
<line x1="560.48" y1="290.23117057351396" x2="111.66046511627906" y2="344.1373200442968" stroke="gray" stroke-width="0.5"/>
<text x="65" y="350.1466223698782" font-size="7.069767441860465" text-anchor="start">GOT-OSS-20B</text>
<line x1="424.48" y1="311.7677590229064" x2="132.86976744186046" y2="353.0166112956811" stroke="gray" stroke-width="0.5"/>
<text x="65" y="359.0259136212625" font-size="7.069767441860465" text-anchor="start">Llama 2 Chat 13B</text>
<line x1="556.4" y1="320.1194715346635" x2="120.14418604651163" y2="361.89590254706536" stroke="gray" stroke-width="0.5"/>
<text x="65" y="367.9052048726467" font-size="7.069767441860465" text-anchor="start">Llama-3.2-11B</text>
<line x1="544.8399999999999" y1="330.15181502038837" x2="107.41860465116278" y2="370.77519379844966" stroke="gray" stroke-width="0.5"/>
<text x="65" y="376.784496124031" font-size="7.069767441860465" text-anchor="start">Gemma 2 9B</text>
<line x1="531.9200000000001" y1="336.0402675808127" x2="115.90232558139536" y2="379.6544850498339" stroke="gray" stroke-width="0.5"/>
<text x="65" y="385.66378737541527" font-size="7.069767441860465" text-anchor="start">Llama 3.1 8B</text>
<line x1="512.8799999999999" y1="336.0402675808127" x2="107.41860465116278" y2="388.5337763012182" stroke="gray" stroke-width="0.5"/>
<text x="65" y="394.54307862679957" font-size="7.069767441860465" text-anchor="start">Llama 3 8B</text>
<line x1="497.92" y1="336.0402675808127" x2="98.93488372093023" y2="397.41306755260246" stroke="gray" stroke-width="0.5"/>
<text x="65" y="403.4223698781838" font-size="7.069767441860465" text-anchor="start">Gemma 8B</text>
<line x1="485.0" y1="342.71604449906766" x2="107.41860465116278" y2="406.29235880398676" stroke="gray" stroke-width="0.5"/>
<text x="65" y="412.3016611295681" font-size="7.069767441860465" text-anchor="start">Mistral 7B</text>
<line x1="371.44" y1="342.71604449906766" x2="128.62790697674419" y2="415.171650055371" stroke="gray" stroke-width="0.5"/>
<text x="65" y="421.18095238095236" font-size="7.069767441860465" text-anchor="start">Llama 2 Chat 7B</text>
<line x1="242.24" y1="385.0759075101942" x2="128.62790697674419" y2="424.0509413067553" stroke="gray" stroke-width="0.5"/>
<text x="65" y="430.06024363233666" font-size="7.069767441860465" text-anchor="start">AppleOpenElm 3B</text>
<line x1="244.28" y1="435.23505682142047" x2="141.353488372093" y2="432.93023255813955" stroke="gray" stroke-width="0.5"/>
<text x="65" y="438.9395348837209" font-size="7.069767441860465" text-anchor="start">Apple OpenElm 1.1B</text>
<line x1="677.4399999999999" y1="114.6001826474898" x2="682.4399999999999" y2="114.6001826474898" stroke="gray" stroke-width="0.5"/>
<text x="682.4399999999999" y="117.65260688991405" font-size="8.721212121212131" text-anchor="start">Deepseek-R1</text>
<line x1="670.64" y1="266.7337793013545" x2="675.64" y2="266.7337793013545" stroke="gray" stroke-width="0.5"/>
<text x="675.64" y="270.2337793013545" font-size="10" text-anchor="start">Qwen3-32B</text>
<line x1="593.8000000000001" y1="308.06280035933855" x2="598.8000000000001" y2="308.06280035933855" stroke="gray" stroke-width="0.5"/>
<text x="598.8000000000001" y="311.56280035933855" font-size="10" text-anchor="start">Qwen3-14B</text>
<line x1="567.96" y1="336.0402675808127" x2="572.96" y2="336.0402675808127" stroke="gray" stroke-width="0.5"/>
<text x="572.96" y="339.5402675808127" font-size="10" text-anchor="start">Qwen3-8B</text>
<line x1="532.5999999999999" y1="370.6935117205418" x2="537.5999999999999" y2="370.6935117205418" stroke="gray" stroke-width="0.5"/>
<text x="537.5999999999999" y="374.1935117205418" font-size="10" text-anchor="start">Qwen3-4B</text>
<line x1="491.12" y1="385.0759075101942" x2="496.12" y2="385.0759075101942" stroke="gray" stroke-width="0.5"/>
<text x="496.12" y="388.5759075101942" font-size="10" text-anchor="start">Llama 3.2 3B</text>
<line x1="395.24" y1="440.0" x2="400.24" y2="440.0" stroke="gray" stroke-width="0.5"/>
<text x="400.24" y="443.5" font-size="10" text-anchor="start">Llama 3.2 1B</text>
<text x="400.0" y="30.0" font-size="14" text-anchor="middle" font-weight="bold">MMLU Score vs. Parameter Count</text>
<text x="400.0" y="490" font-size="10" text-anchor="middle">MMLU Score (%25)</text>
<text x="15" y="250.0" font-size="10" text-anchor="middle" transform="rotate(-90,15,250.0)">Parameters (log scale)</text>
</svg>
