<svg width="800" height="500" xmlns="http://www.w3.org/2000/svg" font-family="sans-serif">
<rect x="0" y="0" width="800" height="500" fill="white"/>
<line x1="60" y1="440.0" x2="740" y2="440.0" stroke="black"/>
<line x1="60" y1="60" x2="60" y2="440" stroke="black"/>
<line x1="60.0" y1="440.0" x2="60.0" y2="445.0" stroke="black"/>
<text x="60.0" y="460.0" font-size="8" text-anchor="middle">0</text>
<line x1="94.0" y1="440.0" x2="94.0" y2="445.0" stroke="black"/>
<text x="94.0" y="460.0" font-size="8" text-anchor="middle">5</text>
<line x1="128.0" y1="440.0" x2="128.0" y2="445.0" stroke="black"/>
<text x="128.0" y="460.0" font-size="8" text-anchor="middle">10</text>
<line x1="162.0" y1="440.0" x2="162.0" y2="445.0" stroke="black"/>
<text x="162.0" y="460.0" font-size="8" text-anchor="middle">15</text>
<line x1="196.0" y1="440.0" x2="196.0" y2="445.0" stroke="black"/>
<text x="196.0" y="460.0" font-size="8" text-anchor="middle">20</text>
<line x1="230.0" y1="440.0" x2="230.0" y2="445.0" stroke="black"/>
<text x="230.0" y="460.0" font-size="8" text-anchor="middle">25</text>
<line x1="264.0" y1="440.0" x2="264.0" y2="445.0" stroke="black"/>
<text x="264.0" y="460.0" font-size="8" text-anchor="middle">30</text>
<line x1="298.0" y1="440.0" x2="298.0" y2="445.0" stroke="black"/>
<text x="298.0" y="460.0" font-size="8" text-anchor="middle">35</text>
<line x1="332.0" y1="440.0" x2="332.0" y2="445.0" stroke="black"/>
<text x="332.0" y="460.0" font-size="8" text-anchor="middle">40</text>
<line x1="366.0" y1="440.0" x2="366.0" y2="445.0" stroke="black"/>
<text x="366.0" y="460.0" font-size="8" text-anchor="middle">45</text>
<line x1="400.0" y1="440.0" x2="400.0" y2="445.0" stroke="black"/>
<text x="400.0" y="460.0" font-size="8" text-anchor="middle">50</text>
<line x1="434.00000000000006" y1="440.0" x2="434.00000000000006" y2="445.0" stroke="black"/>
<text x="434.00000000000006" y="460.0" font-size="8" text-anchor="middle">55</text>
<line x1="468.0" y1="440.0" x2="468.0" y2="445.0" stroke="black"/>
<text x="468.0" y="460.0" font-size="8" text-anchor="middle">60</text>
<line x1="502.0" y1="440.0" x2="502.0" y2="445.0" stroke="black"/>
<text x="502.0" y="460.0" font-size="8" text-anchor="middle">65</text>
<line x1="536.0" y1="440.0" x2="536.0" y2="445.0" stroke="black"/>
<text x="536.0" y="460.0" font-size="8" text-anchor="middle">70</text>
<line x1="570.0" y1="440.0" x2="570.0" y2="445.0" stroke="black"/>
<text x="570.0" y="460.0" font-size="8" text-anchor="middle">75</text>
<line x1="604.0" y1="440.0" x2="604.0" y2="445.0" stroke="black"/>
<text x="604.0" y="460.0" font-size="8" text-anchor="middle">80</text>
<line x1="638.0" y1="440.0" x2="638.0" y2="445.0" stroke="black"/>
<text x="638.0" y="460.0" font-size="8" text-anchor="middle">85</text>
<line x1="672.0" y1="440.0" x2="672.0" y2="445.0" stroke="black"/>
<text x="672.0" y="460.0" font-size="8" text-anchor="middle">90</text>
<line x1="706.0" y1="440.0" x2="706.0" y2="445.0" stroke="black"/>
<text x="706.0" y="460.0" font-size="8" text-anchor="middle">95</text>
<line x1="740.0" y1="440.0" x2="740.0" y2="445.0" stroke="black"/>
<text x="740.0" y="460.0" font-size="8" text-anchor="middle">100</text>
<line x1="60" y1="406.5371827237366" x2="55" y2="406.5371827237366" stroke="black"/>
<text x="50" y="409.5371827237366" font-size="8" text-anchor="end">10^0</text>
<line x1="60" y1="301.55868111092934" x2="55" y2="301.55868111092934" stroke="black"/>
<text x="50" y="304.55868111092934" font-size="8" text-anchor="end">10^1</text>
<line x1="60" y1="196.58017949812194" x2="55" y2="196.58017949812194" stroke="black"/>
<text x="50" y="199.58017949812194" font-size="8" text-anchor="end">10^2</text>
<line x1="60" y1="91.60167788531466" x2="55" y2="91.60167788531466" stroke="black"/>
<text x="50" y="94.60167788531466" font-size="8" text-anchor="end">10^3</text>
<circle cx="395.24" cy="406.5371827237366" r="3" fill="blue"/>
<circle cx="244.28" cy="402.19184065809543" r="3" fill="blue"/>
<circle cx="491.12" cy="356.4497083156439" r="3" fill="blue"/>
<circle cx="485.0" cy="317.82005676711964" r="3" fill="blue"/>
<circle cx="242.24" cy="356.4497083156439" r="3" fill="blue"/>
<circle cx="531.9200000000001" cy="311.7321490677927" r="3" fill="blue"/>
<circle cx="626.4399999999999" cy="248.52879329716345" r="3" fill="blue"/>
<circle cx="512.8799999999999" cy="311.7321490677927" r="3" fill="blue"/>
<circle cx="497.92" cy="311.7321490677927" r="3" fill="blue"/>
<circle cx="544.8399999999999" cy="306.3622339075512" r="3" fill="blue"/>
<circle cx="556.4" cy="297.2133390452881" r="3" fill="blue"/>
<circle cx="371.44" cy="317.82005676711964" r="3" fill="blue"/>
<circle cx="424.48" cy="289.5970787170173" r="3" fill="blue"/>
<circle cx="571.36" cy="256.27475949945836" r="3" fill="blue"/>
<circle cx="567.96" cy="243.15887813692186" r="3" fill="blue"/>
<circle cx="548.9200000000001" cy="239.5096043089246" r="3" fill="blue"/>
<circle cx="644.8" cy="212.8415551543123" r="3" fill="blue"/>
<circle cx="645.48" cy="211.55720025160724" r="3" fill="blue"/>
<circle cx="627.8" cy="212.8415551543123" r="3" fill="blue"/>
<circle cx="632.5600000000001" cy="211.55720025160724" r="3" fill="blue"/>
<circle cx="617.6" cy="211.55720025160724" r="3" fill="blue"/>
<circle cx="600.6" cy="212.8415551543123" r="3" fill="blue"/>
<circle cx="597.2" cy="212.8415551543123" r="3" fill="blue"/>
<circle cx="534.64" cy="212.8415551543123" r="3" fill="blue"/>
<circle cx="591.76" cy="248.52879329716345" r="3" fill="blue"/>
<circle cx="501.32" cy="256.27475949945836" r="3" fill="blue"/>
<circle cx="562.5200000000001" cy="248.52879329716345" r="3" fill="blue"/>
<circle cx="677.4399999999999" cy="109.79208808121732" r="3" fill="red"/>
<circle cx="593.12" cy="267.7325823590269" r="3" fill="blue"/>
<circle cx="652.28" cy="241.90971550456234" r="3" fill="blue"/>
<circle cx="644.8" cy="201.38373229474382" r="3" fill="blue"/>
<circle cx="536.0" cy="173.1997380725566" r="3" fill="blue"/>
<circle cx="556.4" cy="144.4132496364162" r="3" fill="blue"/>
<circle cx="595.16" cy="140.7863191482285" r="3" fill="blue"/>
<circle cx="579.52" cy="248.52879329716345" r="3" fill="blue"/>
<circle cx="657.04" cy="157.04769480441885" r="3" fill="blue"/>
<circle cx="419.108" cy="429.8265320431366" r="3" fill="blue"/>
<circle cx="485.88400000000007" cy="382.34500025915776" r="3" fill="blue"/>
<circle cx="532.5999999999999" cy="343.33382695310735" r="3" fill="blue"/>
<circle cx="567.96" cy="311.7321490677927" r="3" fill="red"/>
<circle cx="593.8000000000001" cy="286.21837888180505" r="3" fill="blue"/>
<circle cx="670.64" cy="248.52879329716345" r="3" fill="red"/>
<circle cx="639.36" cy="132.81046136387295" r="3" fill="blue"/>
<circle cx="672.0" cy="71.327746925488" r="3" fill="blue"/>
<circle cx="614.88" cy="64.80355279662186" r="3" fill="blue"/>
<circle cx="623.72" cy="64.80355279662186" r="3" fill="blue"/>
<circle cx="663.16" cy="64.80355279662186" r="3" fill="blue"/>
<circle cx="647.5200000000001" cy="64.80355279662186" r="3" fill="blue"/>
<circle cx="650.24" cy="60.0" r="3" fill="blue"/>
<circle cx="666.5600000000001" cy="157.62603132016756" r="3" fill="blue"/>
<circle cx="560.48" cy="269.9570032256147" r="3" fill="blue"/>
<circle cx="599.2399999999999" cy="188.2678509322073" r="3" fill="blue"/>
<polyline fill="none" stroke="red" stroke-width="1" points="567.96,311.7321490677927 670.64,248.52879329716345 677.4399999999999,109.79208808121732"/>
<text x="750.0" y="223.3510101487245" font-size="10" font-weight="bold" fill="red" text-anchor="start">Frontier</text>
<line x1="650.24" y1="60.0" x2="113.39183673469387" y2="60.0" stroke="gray" stroke-width="0.5"/>
<text x="65" y="65.2734693877551" font-size="6.204081632653061" text-anchor="start">Claude 3 Opus</text>
<line x1="614.88" y1="64.80355279662186" x2="105.9469387755102" y2="67.78741496598639" stroke="gray" stroke-width="0.5"/>
<text x="65" y="73.0608843537415" font-size="6.204081632653061" text-anchor="start">GPT-04-mini</text>
<line x1="623.72" y1="64.80355279662186" x2="87.33469387755102" y2="75.57482993197279" stroke="gray" stroke-width="0.5"/>
<text x="65" y="80.8482993197279" font-size="6.204081632653061" text-anchor="start">GPT-o3</text>
<line x1="663.16" y1="64.80355279662186" x2="87.33469387755102" y2="83.36224489795919" stroke="gray" stroke-width="0.5"/>
<text x="65" y="88.6357142857143" font-size="6.204081632653061" text-anchor="start">GPT-4o</text>
<line x1="647.5200000000001" y1="64.80355279662186" x2="83.61224489795919" y2="91.14965986394557" stroke="gray" stroke-width="0.5"/>
<text x="65" y="96.42312925170069" font-size="6.204081632653061" text-anchor="start">GPT-4</text>
<line x1="672.0" y1="71.327746925488" x2="109.66938775510204" y2="98.93707482993197" stroke="gray" stroke-width="0.5"/>
<text x="65" y="104.21054421768709" font-size="6.204081632653061" text-anchor="start">Gemini Ultra</text>
<line x1="639.36" y1="132.81046136387295" x2="109.66938775510204" y2="106.72448979591837" stroke="gray" stroke-width="0.5"/>
<text x="65" y="111.99795918367349" font-size="6.204081632653061" text-anchor="start">Llama 3 405B</text>
<line x1="595.16" y1="140.7863191482285" x2="154.33877551020407" y2="114.51190476190476" stroke="gray" stroke-width="0.5"/>
<text x="65" y="119.78537414965987" font-size="6.204081632653061" text-anchor="start">Nemotron-4-340B-Instruct</text>
<line x1="556.4" y1="144.4132496364162" x2="87.33469387755102" y2="122.29931972789116" stroke="gray" stroke-width="0.5"/>
<text x="65" y="127.57278911564627" font-size="6.204081632653061" text-anchor="start">Grok-1</text>
<line x1="657.04" y1="157.04769480441885" x2="105.9469387755102" y2="130.08673469387756" stroke="gray" stroke-width="0.5"/>
<text x="65" y="135.36020408163267" font-size="6.204081632653061" text-anchor="start">Qwen 3-235B</text>
<line x1="666.5600000000001" y1="157.62603132016756" x2="102.22448979591837" y2="137.87414965986395" stroke="gray" stroke-width="0.5"/>
<text x="65" y="143.14761904761906" font-size="6.204081632653061" text-anchor="start">Qwen3-235B</text>
<line x1="536.0" y1="173.1997380725566" x2="91.05714285714285" y2="145.66156462585036" stroke="gray" stroke-width="0.5"/>
<text x="65" y="150.93503401360547" font-size="6.204081632653061" text-anchor="start">GPT-3.5</text>
<line x1="599.2399999999999" y1="188.2678509322073" x2="109.66938775510204" y2="153.44897959183675" stroke="gray" stroke-width="0.5"/>
<text x="65" y="158.72244897959186" font-size="6.204081632653061" text-anchor="start">GPT-OSS-120B</text>
<line x1="644.8" y1="201.38373229474382" x2="113.39183673469387" y2="161.23639455782313" stroke="gray" stroke-width="0.5"/>
<text x="65" y="166.50986394557825" font-size="6.204081632653061" text-anchor="start">Llama-3.2-90B</text>
<line x1="645.48" y1="211.55720025160724" x2="105.9469387755102" y2="169.02380952380955" stroke="gray" stroke-width="0.5"/>
<text x="65" y="174.29727891156466" font-size="6.204081632653061" text-anchor="start">Qwen2.5 72B</text>
<line x1="632.5600000000001" y1="211.55720025160724" x2="98.50204081632653" y2="176.81122448979593" stroke="gray" stroke-width="0.5"/>
<text x="65" y="182.08469387755105" font-size="6.204081632653061" text-anchor="start">Qwen2 72B</text>
<line x1="617.6" y1="211.55720025160724" x2="102.22448979591837" y2="184.59863945578232" stroke="gray" stroke-width="0.5"/>
<text x="65" y="189.87210884353743" font-size="6.204081632653061" text-anchor="start">NVLM-D-72B</text>
<line x1="644.8" y1="212.8415551543123" x2="113.39183673469387" y2="192.38605442176873" stroke="gray" stroke-width="0.5"/>
<text x="65" y="197.65952380952385" font-size="6.204081632653061" text-anchor="start">Llama 3.1 70B</text>
<line x1="627.8" y1="212.8415551543123" x2="191.56326530612245" y2="200.17346938775512" stroke="gray" stroke-width="0.5"/>
<text x="65" y="205.44693877551023" font-size="6.204081632653061" text-anchor="start">Llama-3.1-Nemotron-70B-Instruct-HF</text>
<line x1="600.6" y1="212.8415551543123" x2="105.9469387755102" y2="207.96088435374153" stroke="gray" stroke-width="0.5"/>
<text x="65" y="213.23435374149665" font-size="6.204081632653061" text-anchor="start">Llama 3 70B</text>
<line x1="597.2" y1="212.8415551543123" x2="120.83673469387756" y2="215.74829931972792" stroke="gray" stroke-width="0.5"/>
<text x="65" y="221.02176870748303" font-size="6.204081632653061" text-anchor="start">Claude 3 Sonnet</text>
<line x1="534.64" y1="212.8415551543123" x2="120.83673469387756" y2="223.5357142857143" stroke="gray" stroke-width="0.5"/>
<text x="65" y="228.80918367346942" font-size="6.204081632653061" text-anchor="start">LLaMA2-70B Base</text>
<line x1="548.9200000000001" y1="239.5096043089246" x2="132.00408163265305" y2="231.32312925170072" stroke="gray" stroke-width="0.5"/>
<text x="65" y="236.59659863945583" font-size="6.204081632653061" text-anchor="start">Mixtral Large Base</text>
<line x1="652.28" y1="241.90971550456234" x2="105.9469387755102" y2="239.1105442176871" stroke="gray" stroke-width="0.5"/>
<text x="65" y="244.38401360544222" font-size="6.204081632653061" text-anchor="start">Deepseek-v3</text>
<line x1="567.96" y1="243.15887813692186" x2="79.88979591836734" y2="246.8979591836735" stroke="gray" stroke-width="0.5"/>
<text x="65" y="252.1714285714286" font-size="6.204081632653061" text-anchor="start">DBRX</text>
<line x1="626.4399999999999" y1="248.52879329716345" x2="105.9469387755102" y2="254.6853741496599" stroke="gray" stroke-width="0.5"/>
<text x="65" y="259.958843537415" font-size="6.204081632653061" text-anchor="start">Qwen2.5-32b</text>
<line x1="591.76" y1="248.52879329716345" x2="91.05714285714285" y2="262.4727891156463" stroke="gray" stroke-width="0.5"/>
<text x="65" y="267.7462585034014" font-size="6.204081632653061" text-anchor="start">QwQ-32B</text>
<line x1="562.5200000000001" y1="248.52879329716345" x2="87.33469387755102" y2="270.2602040816327" stroke="gray" stroke-width="0.5"/>
<text x="65" y="275.5336734693878" font-size="6.204081632653061" text-anchor="start">R1-32B</text>
<line x1="579.52" y1="248.52879329716345" x2="91.05714285714285" y2="278.0476190476191" stroke="gray" stroke-width="0.5"/>
<text x="65" y="283.3210884353742" font-size="6.204081632653061" text-anchor="start">QWQ-32B</text>
<line x1="571.36" y1="256.27475949945836" x2="105.9469387755102" y2="285.8350340136055" stroke="gray" stroke-width="0.5"/>
<text x="65" y="291.10850340136057" font-size="6.204081632653061" text-anchor="start">Gemma 2 27B</text>
<line x1="501.32" y1="256.27475949945836" x2="105.9469387755102" y2="293.62244897959187" stroke="gray" stroke-width="0.5"/>
<text x="65" y="298.89591836734695" font-size="6.204081632653061" text-anchor="start">Gemma-3-27B</text>
<line x1="593.12" y1="267.7325823590269" x2="105.9469387755102" y2="301.4098639455783" stroke="gray" stroke-width="0.5"/>
<text x="65" y="306.6833333333334" font-size="6.204081632653061" text-anchor="start">DeepSeek-v2</text>
<line x1="560.48" y1="269.9570032256147" x2="105.9469387755102" y2="309.1972789115647" stroke="gray" stroke-width="0.5"/>
<text x="65" y="314.4707482993198" font-size="6.204081632653061" text-anchor="start">GOT-OSS-20B</text>
<line x1="593.8000000000001" y1="286.21837888180505" x2="98.50204081632653" y2="316.9846938775511" stroke="gray" stroke-width="0.5"/>
<text x="65" y="322.25816326530617" font-size="6.204081632653061" text-anchor="start">Qwen3-14B</text>
<line x1="424.48" y1="289.5970787170173" x2="124.55918367346939" y2="324.77210884353747" stroke="gray" stroke-width="0.5"/>
<text x="65" y="330.04557823129255" font-size="6.204081632653061" text-anchor="start">Llama 2 Chat 13B</text>
<line x1="556.4" y1="297.2133390452881" x2="113.39183673469387" y2="332.55952380952385" stroke="gray" stroke-width="0.5"/>
<text x="65" y="337.83299319727894" font-size="6.204081632653061" text-anchor="start">Llama-3.2-11B</text>
<line x1="544.8399999999999" y1="306.3622339075512" x2="102.22448979591837" y2="340.34693877551024" stroke="gray" stroke-width="0.5"/>
<text x="65" y="345.6204081632653" font-size="6.204081632653061" text-anchor="start">Gemma 2 9B</text>
<line x1="531.9200000000001" y1="311.7321490677927" x2="109.66938775510204" y2="348.1343537414966" stroke="gray" stroke-width="0.5"/>
<text x="65" y="353.4078231292517" font-size="6.204081632653061" text-anchor="start">Llama 3.1 8B</text>
<line x1="512.8799999999999" y1="311.7321490677927" x2="102.22448979591837" y2="355.92176870748307" stroke="gray" stroke-width="0.5"/>
<text x="65" y="361.19523809523815" font-size="6.204081632653061" text-anchor="start">Llama 3 8B</text>
<line x1="497.92" y1="311.7321490677927" x2="94.7795918367347" y2="363.70918367346945" stroke="gray" stroke-width="0.5"/>
<text x="65" y="368.98265306122454" font-size="6.204081632653061" text-anchor="start">Gemma 8B</text>
<line x1="485.0" y1="317.82005676711964" x2="102.22448979591837" y2="371.49659863945584" stroke="gray" stroke-width="0.5"/>
<text x="65" y="376.7700680272109" font-size="6.204081632653061" text-anchor="start">Mistral 7B</text>
<line x1="371.44" y1="317.82005676711964" x2="120.83673469387756" y2="379.2840136054422" stroke="gray" stroke-width="0.5"/>
<text x="65" y="384.5574829931973" font-size="6.204081632653061" text-anchor="start">Llama 2 Chat 7B</text>
<line x1="532.5999999999999" y1="343.33382695310735" x2="94.7795918367347" y2="387.0714285714286" stroke="gray" stroke-width="0.5"/>
<text x="65" y="392.3448979591837" font-size="6.204081632653061" text-anchor="start">Qwen3-4B</text>
<line x1="491.12" y1="356.4497083156439" x2="109.66938775510204" y2="394.858843537415" stroke="gray" stroke-width="0.5"/>
<text x="65" y="400.1323129251701" font-size="6.204081632653061" text-anchor="start">Llama 3.2 3B</text>
<line x1="242.24" y1="356.4497083156439" x2="120.83673469387756" y2="402.64625850340144" stroke="gray" stroke-width="0.5"/>
<text x="65" y="407.9197278911565" font-size="6.204081632653061" text-anchor="start">AppleOpenElm 3B</text>
<line x1="485.88400000000007" y1="382.34500025915776" x2="102.22448979591837" y2="410.4336734693878" stroke="gray" stroke-width="0.5"/>
<text x="65" y="415.7071428571429" font-size="6.204081632653061" text-anchor="start">Qwen3-1.7B</text>
<line x1="244.28" y1="402.19184065809543" x2="132.00408163265305" y2="418.2210884353742" stroke="gray" stroke-width="0.5"/>
<text x="65" y="423.4945578231293" font-size="6.204081632653061" text-anchor="start">Apple OpenElm 1.1B</text>
<line x1="395.24" y1="406.5371827237366" x2="109.66938775510204" y2="426.0085034013606" stroke="gray" stroke-width="0.5"/>
<text x="65" y="431.2819727891157" font-size="6.204081632653061" text-anchor="start">Llama 3.2 1B</text>
<line x1="419.108" y1="429.8265320431366" x2="102.22448979591837" y2="433.795918367347" stroke="gray" stroke-width="0.5"/>
<text x="65" y="439.06938775510207" font-size="6.204081632653061" text-anchor="start">Qwen3-0.6B</text>
<line x1="677.4399999999999" y1="109.79208808121732" x2="682.4399999999999" y2="109.79208808121732" stroke="gray" stroke-width="0.5"/>
<text x="682.4399999999999" y="112.84451232364157" font-size="8.721212121212131" text-anchor="start">Deepseek-R1</text>
<line x1="670.64" y1="248.52879329716345" x2="675.64" y2="248.52879329716345" stroke="gray" stroke-width="0.5"/>
<text x="675.64" y="252.02879329716345" font-size="10" text-anchor="start">Qwen3-32B</text>
<line x1="567.96" y1="311.7321490677927" x2="572.96" y2="311.7321490677927" stroke="gray" stroke-width="0.5"/>
<text x="572.96" y="315.2321490677927" font-size="10" text-anchor="start">Qwen3-8B</text>
<text x="400.0" y="30.0" font-size="14" text-anchor="middle" font-weight="bold">MMLU Score vs. Parameter Count</text>
<text x="400.0" y="490" font-size="10" text-anchor="middle">MMLU Score (Average Undergrad Scores 90%)</text>
<text x="15" y="250.0" font-size="10" text-anchor="middle" transform="rotate(-90,15,250.0)">Parameters (log scale)</text>
</svg>
