<svg width="800" height="500" xmlns="http://www.w3.org/2000/svg" font-family="sans-serif">
<rect x="0" y="0" width="800" height="500" fill="white"/>
<line x1="60" y1="440.0" x2="740" y2="440.0" stroke="black"/>
<line x1="60" y1="60" x2="60" y2="440" stroke="black"/>
<line x1="60.0" y1="440.0" x2="60.0" y2="445.0" stroke="black"/>
<text x="60.0" y="460.0" font-size="8" text-anchor="middle">0</text>
<line x1="94.0" y1="440.0" x2="94.0" y2="445.0" stroke="black"/>
<text x="94.0" y="460.0" font-size="8" text-anchor="middle">5</text>
<line x1="128.0" y1="440.0" x2="128.0" y2="445.0" stroke="black"/>
<text x="128.0" y="460.0" font-size="8" text-anchor="middle">10</text>
<line x1="162.0" y1="440.0" x2="162.0" y2="445.0" stroke="black"/>
<text x="162.0" y="460.0" font-size="8" text-anchor="middle">15</text>
<line x1="196.0" y1="440.0" x2="196.0" y2="445.0" stroke="black"/>
<text x="196.0" y="460.0" font-size="8" text-anchor="middle">20</text>
<line x1="230.0" y1="440.0" x2="230.0" y2="445.0" stroke="black"/>
<text x="230.0" y="460.0" font-size="8" text-anchor="middle">25</text>
<line x1="264.0" y1="440.0" x2="264.0" y2="445.0" stroke="black"/>
<text x="264.0" y="460.0" font-size="8" text-anchor="middle">30</text>
<line x1="298.0" y1="440.0" x2="298.0" y2="445.0" stroke="black"/>
<text x="298.0" y="460.0" font-size="8" text-anchor="middle">35</text>
<line x1="332.0" y1="440.0" x2="332.0" y2="445.0" stroke="black"/>
<text x="332.0" y="460.0" font-size="8" text-anchor="middle">40</text>
<line x1="366.0" y1="440.0" x2="366.0" y2="445.0" stroke="black"/>
<text x="366.0" y="460.0" font-size="8" text-anchor="middle">45</text>
<line x1="400.0" y1="440.0" x2="400.0" y2="445.0" stroke="black"/>
<text x="400.0" y="460.0" font-size="8" text-anchor="middle">50</text>
<line x1="434.00000000000006" y1="440.0" x2="434.00000000000006" y2="445.0" stroke="black"/>
<text x="434.00000000000006" y="460.0" font-size="8" text-anchor="middle">55</text>
<line x1="468.0" y1="440.0" x2="468.0" y2="445.0" stroke="black"/>
<text x="468.0" y="460.0" font-size="8" text-anchor="middle">60</text>
<line x1="502.0" y1="440.0" x2="502.0" y2="445.0" stroke="black"/>
<text x="502.0" y="460.0" font-size="8" text-anchor="middle">65</text>
<line x1="536.0" y1="440.0" x2="536.0" y2="445.0" stroke="black"/>
<text x="536.0" y="460.0" font-size="8" text-anchor="middle">70</text>
<line x1="570.0" y1="440.0" x2="570.0" y2="445.0" stroke="black"/>
<text x="570.0" y="460.0" font-size="8" text-anchor="middle">75</text>
<line x1="604.0" y1="440.0" x2="604.0" y2="445.0" stroke="black"/>
<text x="604.0" y="460.0" font-size="8" text-anchor="middle">80</text>
<line x1="638.0" y1="440.0" x2="638.0" y2="445.0" stroke="black"/>
<text x="638.0" y="460.0" font-size="8" text-anchor="middle">85</text>
<line x1="672.0" y1="440.0" x2="672.0" y2="445.0" stroke="black"/>
<text x="672.0" y="460.0" font-size="8" text-anchor="middle">90</text>
<line x1="706.0" y1="440.0" x2="706.0" y2="445.0" stroke="black"/>
<text x="706.0" y="460.0" font-size="8" text-anchor="middle">95</text>
<line x1="740.0" y1="440.0" x2="740.0" y2="445.0" stroke="black"/>
<text x="740.0" y="460.0" font-size="8" text-anchor="middle">100</text>
<line x1="60" y1="406.5371827237366" x2="55" y2="406.5371827237366" stroke="black"/>
<text x="50" y="409.5371827237366" font-size="8" text-anchor="end">10^0</text>
<line x1="60" y1="301.55868111092934" x2="55" y2="301.55868111092934" stroke="black"/>
<text x="50" y="304.55868111092934" font-size="8" text-anchor="end">10^1</text>
<line x1="60" y1="196.58017949812194" x2="55" y2="196.58017949812194" stroke="black"/>
<text x="50" y="199.58017949812194" font-size="8" text-anchor="end">10^2</text>
<line x1="60" y1="91.60167788531466" x2="55" y2="91.60167788531466" stroke="black"/>
<text x="50" y="94.60167788531466" font-size="8" text-anchor="end">10^3</text>
<circle cx="395.24" cy="406.5371827237366" r="3" fill="blue"/>
<circle cx="244.28" cy="402.19184065809543" r="3" fill="blue"/>
<circle cx="491.12" cy="356.4497083156439" r="3" fill="blue"/>
<circle cx="485.0" cy="317.82005676711964" r="3" fill="blue"/>
<circle cx="242.24" cy="356.4497083156439" r="3" fill="blue"/>
<circle cx="531.9200000000001" cy="311.7321490677927" r="3" fill="blue"/>
<circle cx="626.4399999999999" cy="248.52879329716345" r="3" fill="blue"/>
<circle cx="512.8799999999999" cy="311.7321490677927" r="3" fill="blue"/>
<circle cx="497.92" cy="311.7321490677927" r="3" fill="blue"/>
<circle cx="544.8399999999999" cy="306.3622339075512" r="3" fill="blue"/>
<circle cx="556.4" cy="297.2133390452881" r="3" fill="blue"/>
<circle cx="371.44" cy="317.82005676711964" r="3" fill="blue"/>
<circle cx="424.48" cy="289.5970787170173" r="3" fill="blue"/>
<circle cx="571.36" cy="256.27475949945836" r="3" fill="blue"/>
<circle cx="567.96" cy="243.15887813692186" r="3" fill="blue"/>
<circle cx="548.9200000000001" cy="239.5096043089246" r="3" fill="blue"/>
<circle cx="644.8" cy="212.8415551543123" r="3" fill="blue"/>
<circle cx="645.48" cy="211.55720025160724" r="3" fill="blue"/>
<circle cx="627.8" cy="212.8415551543123" r="3" fill="blue"/>
<circle cx="632.5600000000001" cy="211.55720025160724" r="3" fill="blue"/>
<circle cx="617.6" cy="211.55720025160724" r="3" fill="blue"/>
<circle cx="600.6" cy="212.8415551543123" r="3" fill="blue"/>
<circle cx="597.2" cy="212.8415551543123" r="3" fill="blue"/>
<circle cx="534.64" cy="212.8415551543123" r="3" fill="blue"/>
<circle cx="591.76" cy="248.52879329716345" r="3" fill="blue"/>
<circle cx="501.32" cy="256.27475949945836" r="3" fill="blue"/>
<circle cx="562.5200000000001" cy="248.52879329716345" r="3" fill="blue"/>
<circle cx="677.4399999999999" cy="109.79208808121732" r="3" fill="red"/>
<circle cx="593.12" cy="267.7325823590269" r="3" fill="blue"/>
<circle cx="652.28" cy="241.90971550456234" r="3" fill="blue"/>
<circle cx="644.8" cy="201.38373229474382" r="3" fill="blue"/>
<circle cx="536.0" cy="173.1997380725566" r="3" fill="blue"/>
<circle cx="556.4" cy="144.4132496364162" r="3" fill="blue"/>
<circle cx="595.16" cy="140.7863191482285" r="3" fill="blue"/>
<circle cx="579.52" cy="248.52879329716345" r="3" fill="blue"/>
<circle cx="657.04" cy="157.04769480441885" r="3" fill="blue"/>
<circle cx="419.108" cy="429.8265320431366" r="3" fill="red"/>
<circle cx="485.88400000000007" cy="382.34500025915776" r="3" fill="blue"/>
<circle cx="532.5999999999999" cy="343.33382695310735" r="3" fill="blue"/>
<circle cx="567.96" cy="311.7321490677927" r="3" fill="blue"/>
<circle cx="593.8000000000001" cy="286.21837888180505" r="3" fill="blue"/>
<circle cx="670.64" cy="248.52879329716345" r="3" fill="red"/>
<circle cx="639.36" cy="132.81046136387295" r="3" fill="blue"/>
<circle cx="672.0" cy="71.327746925488" r="3" fill="blue"/>
<circle cx="614.88" cy="64.80355279662186" r="3" fill="blue"/>
<circle cx="623.72" cy="64.80355279662186" r="3" fill="blue"/>
<circle cx="663.16" cy="64.80355279662186" r="3" fill="blue"/>
<circle cx="647.5200000000001" cy="64.80355279662186" r="3" fill="blue"/>
<circle cx="650.24" cy="60.0" r="3" fill="blue"/>
<circle cx="666.5600000000001" cy="157.62603132016756" r="3" fill="blue"/>
<circle cx="560.48" cy="269.9570032256147" r="3" fill="blue"/>
<circle cx="599.2399999999999" cy="188.2678509322073" r="3" fill="blue"/>
<circle cx="668.6" cy="91.60167788531466" r="3" fill="blue"/>
<circle cx="657.04" cy="91.60167788531466" r="3" fill="blue"/>
<circle cx="661.8" cy="127.40303769969026" r="3" fill="blue"/>
<circle cx="347.64" cy="416.71065068060005" r="3" fill="blue"/>
<circle cx="512.2" cy="374.935504838422" r="3" fill="blue"/>
<circle cx="597.88" cy="343.33382695310735" r="3" fill="red"/>
<circle cx="621.0" cy="306.3622339075512" r="3" fill="blue"/>
<circle cx="645.48" cy="256.27475949945836" r="3" fill="blue"/>
<circle cx="640.04" cy="244.44323303962696" r="3" fill="blue"/>
<circle cx="649.56" cy="187.51425387435114" r="3" fill="blue"/>
<circle cx="657.04" cy="133.72004931815655" r="3" fill="blue"/>
<circle cx="652.28" cy="91.60167788531466" r="3" fill="blue"/>
<circle cx="617.6" cy="158.6065332813518" r="3" fill="blue"/>
<circle cx="635.28" cy="138.81803144951542" r="3" fill="blue"/>
<polyline fill="none" stroke="red" stroke-width="1" points="419.108,429.8265320431366 597.88,343.33382695310735 670.64,248.52879329716345 677.4399999999999,109.79208808121732"/>
<text x="750.0" y="282.87031009365614" font-size="10" font-weight="bold" fill="red" text-anchor="start">Frontier</text>
<line x1="650.24" y1="60.0" x2="111.8" y2="60.0" stroke="gray" stroke-width="0.5"/>
<text x="65" y="65.1" font-size="6" text-anchor="start">Claude 3 Opus</text>
<line x1="614.88" y1="64.80355279662186" x2="104.6" y2="66.1311475409836" stroke="gray" stroke-width="0.5"/>
<text x="65" y="71.2311475409836" font-size="6" text-anchor="start">GPT-04-mini</text>
<line x1="623.72" y1="64.80355279662186" x2="86.6" y2="72.26229508196721" stroke="gray" stroke-width="0.5"/>
<text x="65" y="77.3622950819672" font-size="6" text-anchor="start">GPT-o3</text>
<line x1="663.16" y1="64.80355279662186" x2="86.6" y2="78.39344262295083" stroke="gray" stroke-width="0.5"/>
<text x="65" y="83.49344262295082" font-size="6" text-anchor="start">GPT-4o</text>
<line x1="647.5200000000001" y1="64.80355279662186" x2="83.0" y2="84.52459016393442" stroke="gray" stroke-width="0.5"/>
<text x="65" y="89.62459016393441" font-size="6" text-anchor="start">GPT-4</text>
<line x1="672.0" y1="71.327746925488" x2="108.19999999999999" y2="90.65573770491804" stroke="gray" stroke-width="0.5"/>
<text x="65" y="95.75573770491803" font-size="6" text-anchor="start">Gemini Ultra</text>
<line x1="668.6" y1="91.60167788531466" x2="201.79999999999998" y2="96.78688524590164" stroke="gray" stroke-width="0.5"/>
<text x="65" y="101.88688524590164" font-size="6" text-anchor="start">Kimi-K2-Instruct (1T total/32B active)</text>
<line x1="657.04" y1="91.60167788531466" x2="187.39999999999998" y2="102.91803278688525" stroke="gray" stroke-width="0.5"/>
<text x="65" y="108.01803278688524" font-size="6" text-anchor="start">Kimi-K2-Base (1T total/32B active)</text>
<line x1="652.28" y1="91.60167788531466" x2="176.6" y2="109.04918032786885" stroke="gray" stroke-width="0.5"/>
<text x="65" y="114.14918032786885" font-size="6" text-anchor="start">Kimi-K2.5 (1T total/32B active)</text>
<line x1="661.8" y1="127.40303769969026" x2="212.6" y2="115.18032786885246" stroke="gray" stroke-width="0.5"/>
<text x="65" y="120.28032786885245" font-size="6" text-anchor="start">MiniMax-Text-01 (456B total/45.9B active)</text>
<line x1="639.36" y1="132.81046136387295" x2="108.19999999999999" y2="121.31147540983606" stroke="gray" stroke-width="0.5"/>
<text x="65" y="126.41147540983606" font-size="6" text-anchor="start">Llama 3 405B</text>
<line x1="657.04" y1="133.72004931815655" x2="212.6" y2="127.44262295081967" stroke="gray" stroke-width="0.5"/>
<text x="65" y="132.54262295081966" font-size="6" text-anchor="start">Qwen3.5-397B-A17B (397B total/17B active)</text>
<line x1="635.28" y1="138.81803144951542" x2="176.6" y2="133.5737704918033" stroke="gray" stroke-width="0.5"/>
<text x="65" y="138.67377049180328" font-size="6" text-anchor="start">GLM-4.5 (355B total/32B active)</text>
<line x1="595.16" y1="140.7863191482285" x2="151.39999999999998" y2="139.7049180327869" stroke="gray" stroke-width="0.5"/>
<text x="65" y="144.8049180327869" font-size="6" text-anchor="start">Nemotron-4-340B-Instruct</text>
<line x1="556.4" y1="144.4132496364162" x2="86.6" y2="151.8360655737705" stroke="gray" stroke-width="0.5"/>
<text x="65" y="150.9360655737705" font-size="6" text-anchor="start">Grok-1</text>
<line x1="657.04" y1="157.04769480441885" x2="104.6" y2="151.9672131147541" stroke="gray" stroke-width="0.5"/>
<text x="65" y="157.06721311475408" font-size="6" text-anchor="start">Qwen 3-235B</text>
<line x1="666.5600000000001" y1="157.62603132016756" x2="101.0" y2="158.0983606557377" stroke="gray" stroke-width="0.5"/>
<text x="65" y="163.1983606557377" font-size="6" text-anchor="start">Qwen3-235B</text>
<line x1="617.6" y1="158.6065332813518" x2="187.39999999999998" y2="164.22950819672133" stroke="gray" stroke-width="0.5"/>
<text x="65" y="169.32950819672132" font-size="6" text-anchor="start">MiniMax-M2 (230B total/10B active)</text>
<line x1="536.0" y1="173.1997380725566" x2="90.2" y2="170.36065573770492" stroke="gray" stroke-width="0.5"/>
<text x="65" y="175.4606557377049" font-size="6" text-anchor="start">GPT-3.5</text>
<line x1="649.56" y1="187.51425387435114" x2="212.6" y2="176.4918032786885" stroke="gray" stroke-width="0.5"/>
<text x="65" y="181.5918032786885" font-size="6" text-anchor="start">Qwen3.5-122B-A10B (122B total/10B active)</text>
<line x1="599.2399999999999" y1="188.2678509322073" x2="108.19999999999999" y2="182.62295081967213" stroke="gray" stroke-width="0.5"/>
<text x="65" y="187.72295081967212" font-size="6" text-anchor="start">GPT-OSS-120B</text>
<line x1="644.8" y1="201.38373229474382" x2="111.8" y2="188.75409836065575" stroke="gray" stroke-width="0.5"/>
<text x="65" y="193.85409836065574" font-size="6" text-anchor="start">Llama-3.2-90B</text>
<line x1="645.48" y1="211.55720025160724" x2="104.6" y2="194.88524590163934" stroke="gray" stroke-width="0.5"/>
<text x="65" y="199.98524590163933" font-size="6" text-anchor="start">Qwen2.5 72B</text>
<line x1="632.5600000000001" y1="211.55720025160724" x2="97.4" y2="201.01639344262296" stroke="gray" stroke-width="0.5"/>
<text x="65" y="206.11639344262295" font-size="6" text-anchor="start">Qwen2 72B</text>
<line x1="617.6" y1="211.55720025160724" x2="101.0" y2="207.14754098360658" stroke="gray" stroke-width="0.5"/>
<text x="65" y="212.24754098360657" font-size="6" text-anchor="start">NVLM-D-72B</text>
<line x1="644.8" y1="212.8415551543123" x2="111.8" y2="213.27868852459017" stroke="gray" stroke-width="0.5"/>
<text x="65" y="218.37868852459016" font-size="6" text-anchor="start">Llama 3.1 70B</text>
<line x1="627.8" y1="212.8415551543123" x2="187.39999999999998" y2="219.40983606557378" stroke="gray" stroke-width="0.5"/>
<text x="65" y="224.50983606557378" font-size="6" text-anchor="start">Llama-3.1-Nemotron-70B-Instruct-HF</text>
<line x1="600.6" y1="212.8415551543123" x2="104.6" y2="231.54098360655738" stroke="gray" stroke-width="0.5"/>
<text x="65" y="230.64098360655737" font-size="6" text-anchor="start">Llama 3 70B</text>
<line x1="597.2" y1="212.8415551543123" x2="119.0" y2="231.672131147541" stroke="gray" stroke-width="0.5"/>
<text x="65" y="236.772131147541" font-size="6" text-anchor="start">Claude 3 Sonnet</text>
<line x1="534.64" y1="212.8415551543123" x2="119.0" y2="237.80327868852459" stroke="gray" stroke-width="0.5"/>
<text x="65" y="242.90327868852458" font-size="6" text-anchor="start">LLaMA2-70B Base</text>
<line x1="548.9200000000001" y1="239.5096043089246" x2="129.8" y2="243.9344262295082" stroke="gray" stroke-width="0.5"/>
<text x="65" y="249.0344262295082" font-size="6" text-anchor="start">Mixtral Large Base</text>
<line x1="652.28" y1="241.90971550456234" x2="104.6" y2="256.0655737704918" stroke="gray" stroke-width="0.5"/>
<text x="65" y="255.1655737704918" font-size="6" text-anchor="start">Deepseek-v3</text>
<line x1="567.96" y1="243.15887813692186" x2="79.4" y2="262.1967213114754" stroke="gray" stroke-width="0.5"/>
<text x="65" y="261.29672131147544" font-size="6" text-anchor="start">DBRX</text>
<line x1="640.04" y1="244.44323303962696" x2="198.2" y2="262.327868852459" stroke="gray" stroke-width="0.5"/>
<text x="65" y="267.427868852459" font-size="6" text-anchor="start">Qwen3.5-35B-A3B (35B total/3B active)</text>
<line x1="626.4399999999999" y1="248.52879329716345" x2="104.6" y2="274.45901639344265" stroke="gray" stroke-width="0.5"/>
<text x="65" y="273.5590163934427" font-size="6" text-anchor="start">Qwen2.5-32b</text>
<line x1="591.76" y1="248.52879329716345" x2="90.2" y2="274.59016393442624" stroke="gray" stroke-width="0.5"/>
<text x="65" y="279.69016393442627" font-size="6" text-anchor="start">QwQ-32B</text>
<line x1="562.5200000000001" y1="248.52879329716345" x2="86.6" y2="280.72131147540983" stroke="gray" stroke-width="0.5"/>
<text x="65" y="285.82131147540986" font-size="6" text-anchor="start">R1-32B</text>
<line x1="579.52" y1="248.52879329716345" x2="90.2" y2="286.8524590163935" stroke="gray" stroke-width="0.5"/>
<text x="65" y="291.9524590163935" font-size="6" text-anchor="start">QWQ-32B</text>
<line x1="571.36" y1="256.27475949945836" x2="104.6" y2="292.983606557377" stroke="gray" stroke-width="0.5"/>
<text x="65" y="298.08360655737704" font-size="6" text-anchor="start">Gemma 2 27B</text>
<line x1="501.32" y1="256.27475949945836" x2="104.6" y2="299.11475409836066" stroke="gray" stroke-width="0.5"/>
<text x="65" y="304.2147540983607" font-size="6" text-anchor="start">Gemma-3-27B</text>
<line x1="645.48" y1="256.27475949945836" x2="104.6" y2="305.24590163934425" stroke="gray" stroke-width="0.5"/>
<text x="65" y="310.3459016393443" font-size="6" text-anchor="start">Qwen3.5-27B</text>
<line x1="593.12" y1="267.7325823590269" x2="104.6" y2="311.37704918032784" stroke="gray" stroke-width="0.5"/>
<text x="65" y="316.47704918032787" font-size="6" text-anchor="start">DeepSeek-v2</text>
<line x1="560.48" y1="269.9570032256147" x2="104.6" y2="317.5081967213115" stroke="gray" stroke-width="0.5"/>
<text x="65" y="322.6081967213115" font-size="6" text-anchor="start">GOT-OSS-20B</text>
<line x1="593.8000000000001" y1="286.21837888180505" x2="97.4" y2="323.6393442622951" stroke="gray" stroke-width="0.5"/>
<text x="65" y="328.7393442622951" font-size="6" text-anchor="start">Qwen3-14B</text>
<line x1="424.48" y1="289.5970787170173" x2="122.6" y2="329.7704918032787" stroke="gray" stroke-width="0.5"/>
<text x="65" y="334.8704918032787" font-size="6" text-anchor="start">Llama 2 Chat 13B</text>
<line x1="556.4" y1="297.2133390452881" x2="111.8" y2="335.9016393442623" stroke="gray" stroke-width="0.5"/>
<text x="65" y="341.00163934426234" font-size="6" text-anchor="start">Llama-3.2-11B</text>
<line x1="544.8399999999999" y1="306.3622339075512" x2="101.0" y2="342.0327868852459" stroke="gray" stroke-width="0.5"/>
<text x="65" y="347.13278688524593" font-size="6" text-anchor="start">Gemma 2 9B</text>
<line x1="621.0" y1="306.3622339075512" x2="101.0" y2="348.1639344262295" stroke="gray" stroke-width="0.5"/>
<text x="65" y="353.2639344262295" font-size="6" text-anchor="start">Qwen3.5-9B</text>
<line x1="531.9200000000001" y1="311.7321490677927" x2="108.19999999999999" y2="354.29508196721315" stroke="gray" stroke-width="0.5"/>
<text x="65" y="359.3950819672132" font-size="6" text-anchor="start">Llama 3.1 8B</text>
<line x1="512.8799999999999" y1="311.7321490677927" x2="101.0" y2="360.42622950819674" stroke="gray" stroke-width="0.5"/>
<text x="65" y="365.52622950819676" font-size="6" text-anchor="start">Llama 3 8B</text>
<line x1="497.92" y1="311.7321490677927" x2="93.8" y2="366.55737704918033" stroke="gray" stroke-width="0.5"/>
<text x="65" y="371.65737704918035" font-size="6" text-anchor="start">Gemma 8B</text>
<line x1="567.96" y1="311.7321490677927" x2="93.8" y2="372.6885245901639" stroke="gray" stroke-width="0.5"/>
<text x="65" y="377.78852459016395" font-size="6" text-anchor="start">Qwen3-8B</text>
<line x1="485.0" y1="317.82005676711964" x2="101.0" y2="378.81967213114757" stroke="gray" stroke-width="0.5"/>
<text x="65" y="383.9196721311476" font-size="6" text-anchor="start">Mistral 7B</text>
<line x1="371.44" y1="317.82005676711964" x2="119.0" y2="384.95081967213116" stroke="gray" stroke-width="0.5"/>
<text x="65" y="390.0508196721312" font-size="6" text-anchor="start">Llama 2 Chat 7B</text>
<line x1="532.5999999999999" y1="343.33382695310735" x2="93.8" y2="397.08196721311475" stroke="gray" stroke-width="0.5"/>
<text x="65" y="396.1819672131148" font-size="6" text-anchor="start">Qwen3-4B</text>
<line x1="491.12" y1="356.4497083156439" x2="108.19999999999999" y2="397.21311475409834" stroke="gray" stroke-width="0.5"/>
<text x="65" y="402.31311475409836" font-size="6" text-anchor="start">Llama 3.2 3B</text>
<line x1="242.24" y1="356.4497083156439" x2="119.0" y2="403.344262295082" stroke="gray" stroke-width="0.5"/>
<text x="65" y="408.444262295082" font-size="6" text-anchor="start">AppleOpenElm 3B</text>
<line x1="512.2" y1="374.935504838422" x2="101.0" y2="415.4754098360656" stroke="gray" stroke-width="0.5"/>
<text x="65" y="414.5754098360656" font-size="6" text-anchor="start">Qwen3.5-2B</text>
<line x1="485.88400000000007" y1="382.34500025915776" x2="101.0" y2="415.60655737704917" stroke="gray" stroke-width="0.5"/>
<text x="65" y="420.7065573770492" font-size="6" text-anchor="start">Qwen3-1.7B</text>
<line x1="244.28" y1="402.19184065809543" x2="129.8" y2="421.7377049180328" stroke="gray" stroke-width="0.5"/>
<text x="65" y="426.83770491803284" font-size="6" text-anchor="start">Apple OpenElm 1.1B</text>
<line x1="395.24" y1="406.5371827237366" x2="108.19999999999999" y2="433.8688524590164" stroke="gray" stroke-width="0.5"/>
<text x="65" y="432.96885245901643" font-size="6" text-anchor="start">Llama 3.2 1B</text>
<line x1="347.64" y1="416.71065068060005" x2="108.19999999999999" y2="434.0" stroke="gray" stroke-width="0.5"/>
<text x="65" y="439.1" font-size="6" text-anchor="start">Qwen3.5-0.8B</text>
<line x1="677.4399999999999" y1="109.79208808121732" x2="682.4399999999999" y2="109.79208808121732" stroke="gray" stroke-width="0.5"/>
<text x="682.4399999999999" y="112.84451232364157" font-size="8.721212121212131" text-anchor="start">Deepseek-R1</text>
<line x1="670.64" y1="248.52879329716345" x2="675.64" y2="248.52879329716345" stroke="gray" stroke-width="0.5"/>
<text x="675.64" y="252.02879329716345" font-size="10" text-anchor="start">Qwen3-32B</text>
<line x1="597.88" y1="343.33382695310735" x2="602.88" y2="343.33382695310735" stroke="gray" stroke-width="0.5"/>
<text x="602.88" y="346.83382695310735" font-size="10" text-anchor="start">Qwen3.5-4B</text>
<line x1="419.108" y1="429.8265320431366" x2="424.108" y2="429.8265320431366" stroke="gray" stroke-width="0.5"/>
<text x="424.108" y="433.3265320431366" font-size="10" text-anchor="start">Qwen3-0.6B</text>
<text x="400.0" y="30.0" font-size="14" text-anchor="middle" font-weight="bold">MMLU Score vs. Parameter Count</text>
<text x="400.0" y="490" font-size="10" text-anchor="middle">MMLU Score (Average Undergrad Scores 90%)</text>
<text x="15" y="250.0" font-size="10" text-anchor="middle" transform="rotate(-90,15,250.0)">Parameters (log scale)</text>
</svg>
