<svg width="800" height="500" xmlns="http://www.w3.org/2000/svg" font-family="sans-serif">
<rect x="0" y="0" width="800" height="500" fill="white"/>
<line x1="60" y1="440.0" x2="740" y2="440.0" stroke="black"/>
<line x1="60" y1="60" x2="60" y2="440" stroke="black"/>
<line x1="60.0" y1="440.0" x2="60.0" y2="445.0" stroke="black"/>
<text x="60.0" y="460.0" font-size="8" text-anchor="middle">0</text>
<line x1="94.0" y1="440.0" x2="94.0" y2="445.0" stroke="black"/>
<text x="94.0" y="460.0" font-size="8" text-anchor="middle">5</text>
<line x1="128.0" y1="440.0" x2="128.0" y2="445.0" stroke="black"/>
<text x="128.0" y="460.0" font-size="8" text-anchor="middle">10</text>
<line x1="162.0" y1="440.0" x2="162.0" y2="445.0" stroke="black"/>
<text x="162.0" y="460.0" font-size="8" text-anchor="middle">15</text>
<line x1="196.0" y1="440.0" x2="196.0" y2="445.0" stroke="black"/>
<text x="196.0" y="460.0" font-size="8" text-anchor="middle">20</text>
<line x1="230.0" y1="440.0" x2="230.0" y2="445.0" stroke="black"/>
<text x="230.0" y="460.0" font-size="8" text-anchor="middle">25</text>
<line x1="264.0" y1="440.0" x2="264.0" y2="445.0" stroke="black"/>
<text x="264.0" y="460.0" font-size="8" text-anchor="middle">30</text>
<line x1="298.0" y1="440.0" x2="298.0" y2="445.0" stroke="black"/>
<text x="298.0" y="460.0" font-size="8" text-anchor="middle">35</text>
<line x1="332.0" y1="440.0" x2="332.0" y2="445.0" stroke="black"/>
<text x="332.0" y="460.0" font-size="8" text-anchor="middle">40</text>
<line x1="366.0" y1="440.0" x2="366.0" y2="445.0" stroke="black"/>
<text x="366.0" y="460.0" font-size="8" text-anchor="middle">45</text>
<line x1="400.0" y1="440.0" x2="400.0" y2="445.0" stroke="black"/>
<text x="400.0" y="460.0" font-size="8" text-anchor="middle">50</text>
<line x1="434.00000000000006" y1="440.0" x2="434.00000000000006" y2="445.0" stroke="black"/>
<text x="434.00000000000006" y="460.0" font-size="8" text-anchor="middle">55</text>
<line x1="468.0" y1="440.0" x2="468.0" y2="445.0" stroke="black"/>
<text x="468.0" y="460.0" font-size="8" text-anchor="middle">60</text>
<line x1="502.0" y1="440.0" x2="502.0" y2="445.0" stroke="black"/>
<text x="502.0" y="460.0" font-size="8" text-anchor="middle">65</text>
<line x1="536.0" y1="440.0" x2="536.0" y2="445.0" stroke="black"/>
<text x="536.0" y="460.0" font-size="8" text-anchor="middle">70</text>
<line x1="570.0" y1="440.0" x2="570.0" y2="445.0" stroke="black"/>
<text x="570.0" y="460.0" font-size="8" text-anchor="middle">75</text>
<line x1="604.0" y1="440.0" x2="604.0" y2="445.0" stroke="black"/>
<text x="604.0" y="460.0" font-size="8" text-anchor="middle">80</text>
<line x1="638.0" y1="440.0" x2="638.0" y2="445.0" stroke="black"/>
<text x="638.0" y="460.0" font-size="8" text-anchor="middle">85</text>
<line x1="672.0" y1="440.0" x2="672.0" y2="445.0" stroke="black"/>
<text x="672.0" y="460.0" font-size="8" text-anchor="middle">90</text>
<line x1="706.0" y1="440.0" x2="706.0" y2="445.0" stroke="black"/>
<text x="706.0" y="460.0" font-size="8" text-anchor="middle">95</text>
<line x1="740.0" y1="440.0" x2="740.0" y2="445.0" stroke="black"/>
<text x="740.0" y="460.0" font-size="8" text-anchor="middle">100</text>
<line x1="60" y1="406.5371827237366" x2="55" y2="406.5371827237366" stroke="black"/>
<text x="50" y="409.5371827237366" font-size="8" text-anchor="end">10^0</text>
<line x1="60" y1="301.55868111092934" x2="55" y2="301.55868111092934" stroke="black"/>
<text x="50" y="304.55868111092934" font-size="8" text-anchor="end">10^1</text>
<line x1="60" y1="196.58017949812194" x2="55" y2="196.58017949812194" stroke="black"/>
<text x="50" y="199.58017949812194" font-size="8" text-anchor="end">10^2</text>
<line x1="60" y1="91.60167788531466" x2="55" y2="91.60167788531466" stroke="black"/>
<text x="50" y="94.60167788531466" font-size="8" text-anchor="end">10^3</text>
<circle cx="395.24" cy="406.5371827237366" r="3" fill="blue"/>
<circle cx="244.28" cy="402.19184065809543" r="3" fill="blue"/>
<circle cx="491.12" cy="356.4497083156439" r="3" fill="blue"/>
<circle cx="485.0" cy="317.82005676711964" r="3" fill="blue"/>
<circle cx="242.24" cy="356.4497083156439" r="3" fill="blue"/>
<circle cx="531.9200000000001" cy="311.7321490677927" r="3" fill="blue"/>
<circle cx="626.4399999999999" cy="248.52879329716345" r="3" fill="blue"/>
<circle cx="512.8799999999999" cy="311.7321490677927" r="3" fill="blue"/>
<circle cx="497.92" cy="311.7321490677927" r="3" fill="blue"/>
<circle cx="544.8399999999999" cy="306.3622339075512" r="3" fill="blue"/>
<circle cx="556.4" cy="297.2133390452881" r="3" fill="blue"/>
<circle cx="371.44" cy="317.82005676711964" r="3" fill="blue"/>
<circle cx="424.48" cy="289.5970787170173" r="3" fill="blue"/>
<circle cx="571.36" cy="256.27475949945836" r="3" fill="blue"/>
<circle cx="567.96" cy="243.15887813692186" r="3" fill="blue"/>
<circle cx="548.9200000000001" cy="239.5096043089246" r="3" fill="blue"/>
<circle cx="644.8" cy="212.8415551543123" r="3" fill="blue"/>
<circle cx="645.48" cy="211.55720025160724" r="3" fill="blue"/>
<circle cx="627.8" cy="212.8415551543123" r="3" fill="blue"/>
<circle cx="632.5600000000001" cy="211.55720025160724" r="3" fill="blue"/>
<circle cx="617.6" cy="211.55720025160724" r="3" fill="blue"/>
<circle cx="600.6" cy="212.8415551543123" r="3" fill="blue"/>
<circle cx="597.2" cy="212.8415551543123" r="3" fill="blue"/>
<circle cx="534.64" cy="212.8415551543123" r="3" fill="blue"/>
<circle cx="591.76" cy="248.52879329716345" r="3" fill="blue"/>
<circle cx="501.32" cy="256.27475949945836" r="3" fill="blue"/>
<circle cx="562.5200000000001" cy="248.52879329716345" r="3" fill="blue"/>
<circle cx="677.4399999999999" cy="109.79208808121732" r="3" fill="red"/>
<circle cx="593.12" cy="267.7325823590269" r="3" fill="blue"/>
<circle cx="652.28" cy="241.90971550456234" r="3" fill="blue"/>
<circle cx="644.8" cy="201.38373229474382" r="3" fill="blue"/>
<circle cx="536.0" cy="173.1997380725566" r="3" fill="blue"/>
<circle cx="556.4" cy="144.4132496364162" r="3" fill="blue"/>
<circle cx="595.16" cy="140.7863191482285" r="3" fill="blue"/>
<circle cx="579.52" cy="248.52879329716345" r="3" fill="blue"/>
<circle cx="657.04" cy="157.04769480441885" r="3" fill="blue"/>
<circle cx="419.108" cy="429.8265320431366" r="3" fill="red"/>
<circle cx="485.88400000000007" cy="382.34500025915776" r="3" fill="blue"/>
<circle cx="532.5999999999999" cy="343.33382695310735" r="3" fill="red"/>
<circle cx="567.96" cy="311.7321490677927" r="3" fill="blue"/>
<circle cx="593.8000000000001" cy="286.21837888180505" r="3" fill="blue"/>
<circle cx="670.64" cy="248.52879329716345" r="3" fill="red"/>
<circle cx="639.36" cy="132.81046136387295" r="3" fill="blue"/>
<circle cx="672.0" cy="71.327746925488" r="3" fill="blue"/>
<circle cx="614.88" cy="64.80355279662186" r="3" fill="blue"/>
<circle cx="623.72" cy="64.80355279662186" r="3" fill="blue"/>
<circle cx="663.16" cy="64.80355279662186" r="3" fill="blue"/>
<circle cx="647.5200000000001" cy="64.80355279662186" r="3" fill="blue"/>
<circle cx="650.24" cy="60.0" r="3" fill="blue"/>
<circle cx="666.5600000000001" cy="157.62603132016756" r="3" fill="blue"/>
<circle cx="560.48" cy="269.9570032256147" r="3" fill="blue"/>
<circle cx="599.2399999999999" cy="188.2678509322073" r="3" fill="blue"/>
<polyline fill="none" stroke="red" stroke-width="1" points="419.108,429.8265320431366 532.5999999999999,343.33382695310735 670.64,248.52879329716345 677.4399999999999,109.79208808121732"/>
<text x="750.0" y="282.87031009365614" font-size="10" font-weight="bold" fill="red" text-anchor="start">Frontier</text>
<line x1="650.24" y1="60.0" x2="114.4" y2="60.0" stroke="gray" stroke-width="0.5"/>
<text x="65" y="65.38333333333333" font-size="6.333333333333334" text-anchor="start">Claude 3 Opus</text>
<line x1="614.88" y1="64.80355279662186" x2="106.80000000000001" y2="67.95035460992906" stroke="gray" stroke-width="0.5"/>
<text x="65" y="73.3336879432624" font-size="6.333333333333334" text-anchor="start">GPT-04-mini</text>
<line x1="623.72" y1="64.80355279662186" x2="87.8" y2="75.90070921985814" stroke="gray" stroke-width="0.5"/>
<text x="65" y="81.28404255319148" font-size="6.333333333333334" text-anchor="start">GPT-o3</text>
<line x1="663.16" y1="64.80355279662186" x2="87.8" y2="83.85106382978722" stroke="gray" stroke-width="0.5"/>
<text x="65" y="89.23439716312056" font-size="6.333333333333334" text-anchor="start">GPT-4o</text>
<line x1="647.5200000000001" y1="64.80355279662186" x2="84.0" y2="91.8014184397163" stroke="gray" stroke-width="0.5"/>
<text x="65" y="97.18475177304964" font-size="6.333333333333334" text-anchor="start">GPT-4</text>
<line x1="672.0" y1="71.327746925488" x2="110.6" y2="99.75177304964538" stroke="gray" stroke-width="0.5"/>
<text x="65" y="105.13510638297872" font-size="6.333333333333334" text-anchor="start">Gemini Ultra</text>
<line x1="639.36" y1="132.81046136387295" x2="110.6" y2="107.70212765957446" stroke="gray" stroke-width="0.5"/>
<text x="65" y="113.0854609929078" font-size="6.333333333333334" text-anchor="start">Llama 3 405B</text>
<line x1="595.16" y1="140.7863191482285" x2="156.2" y2="115.65248226950352" stroke="gray" stroke-width="0.5"/>
<text x="65" y="121.03581560283686" font-size="6.333333333333334" text-anchor="start">Nemotron-4-340B-Instruct</text>
<line x1="556.4" y1="144.4132496364162" x2="87.8" y2="123.60283687943262" stroke="gray" stroke-width="0.5"/>
<text x="65" y="128.98617021276596" font-size="6.333333333333334" text-anchor="start">Grok-1</text>
<line x1="657.04" y1="157.04769480441885" x2="106.80000000000001" y2="131.5531914893617" stroke="gray" stroke-width="0.5"/>
<text x="65" y="136.93652482269502" font-size="6.333333333333334" text-anchor="start">Qwen 3-235B</text>
<line x1="666.5600000000001" y1="157.62603132016756" x2="103.0" y2="139.5035460992908" stroke="gray" stroke-width="0.5"/>
<text x="65" y="144.8868794326241" font-size="6.333333333333334" text-anchor="start">Qwen3-235B</text>
<line x1="536.0" y1="173.1997380725566" x2="91.6" y2="147.45390070921985" stroke="gray" stroke-width="0.5"/>
<text x="65" y="152.83723404255318" font-size="6.333333333333334" text-anchor="start">GPT-3.5</text>
<line x1="599.2399999999999" y1="188.2678509322073" x2="110.6" y2="155.40425531914892" stroke="gray" stroke-width="0.5"/>
<text x="65" y="160.78758865248224" font-size="6.333333333333334" text-anchor="start">GPT-OSS-120B</text>
<line x1="644.8" y1="201.38373229474382" x2="114.4" y2="163.354609929078" stroke="gray" stroke-width="0.5"/>
<text x="65" y="168.73794326241133" font-size="6.333333333333334" text-anchor="start">Llama-3.2-90B</text>
<line x1="645.48" y1="211.55720025160724" x2="106.80000000000001" y2="171.30496453900707" stroke="gray" stroke-width="0.5"/>
<text x="65" y="176.6882978723404" font-size="6.333333333333334" text-anchor="start">Qwen2.5 72B</text>
<line x1="632.5600000000001" y1="211.55720025160724" x2="99.2" y2="179.25531914893617" stroke="gray" stroke-width="0.5"/>
<text x="65" y="184.6386524822695" font-size="6.333333333333334" text-anchor="start">Qwen2 72B</text>
<line x1="617.6" y1="211.55720025160724" x2="103.0" y2="187.20567375886523" stroke="gray" stroke-width="0.5"/>
<text x="65" y="192.58900709219856" font-size="6.333333333333334" text-anchor="start">NVLM-D-72B</text>
<line x1="644.8" y1="212.8415551543123" x2="114.4" y2="195.1560283687943" stroke="gray" stroke-width="0.5"/>
<text x="65" y="200.53936170212762" font-size="6.333333333333334" text-anchor="start">Llama 3.1 70B</text>
<line x1="627.8" y1="212.8415551543123" x2="194.2" y2="203.1063829787234" stroke="gray" stroke-width="0.5"/>
<text x="65" y="208.48971631205671" font-size="6.333333333333334" text-anchor="start">Llama-3.1-Nemotron-70B-Instruct-HF</text>
<line x1="600.6" y1="212.8415551543123" x2="106.80000000000001" y2="211.05673758865245" stroke="gray" stroke-width="0.5"/>
<text x="65" y="216.44007092198578" font-size="6.333333333333334" text-anchor="start">Llama 3 70B</text>
<line x1="597.2" y1="212.8415551543123" x2="122.0" y2="219.00709219858155" stroke="gray" stroke-width="0.5"/>
<text x="65" y="224.39042553191487" font-size="6.333333333333334" text-anchor="start">Claude 3 Sonnet</text>
<line x1="534.64" y1="212.8415551543123" x2="122.0" y2="226.9574468085106" stroke="gray" stroke-width="0.5"/>
<text x="65" y="232.34078014184394" font-size="6.333333333333334" text-anchor="start">LLaMA2-70B Base</text>
<line x1="548.9200000000001" y1="239.5096043089246" x2="133.4" y2="234.9078014184397" stroke="gray" stroke-width="0.5"/>
<text x="65" y="240.29113475177303" font-size="6.333333333333334" text-anchor="start">Mixtral Large Base</text>
<line x1="652.28" y1="241.90971550456234" x2="106.80000000000001" y2="242.85815602836877" stroke="gray" stroke-width="0.5"/>
<text x="65" y="248.2414893617021" font-size="6.333333333333334" text-anchor="start">Deepseek-v3</text>
<line x1="567.96" y1="243.15887813692186" x2="80.2" y2="250.80851063829783" stroke="gray" stroke-width="0.5"/>
<text x="65" y="256.19184397163116" font-size="6.333333333333334" text-anchor="start">DBRX</text>
<line x1="626.4399999999999" y1="248.52879329716345" x2="106.80000000000001" y2="258.7588652482269" stroke="gray" stroke-width="0.5"/>
<text x="65" y="264.14219858156025" font-size="6.333333333333334" text-anchor="start">Qwen2.5-32b</text>
<line x1="591.76" y1="248.52879329716345" x2="91.6" y2="266.70921985815596" stroke="gray" stroke-width="0.5"/>
<text x="65" y="272.0925531914893" font-size="6.333333333333334" text-anchor="start">QwQ-32B</text>
<line x1="562.5200000000001" y1="248.52879329716345" x2="87.8" y2="274.65957446808505" stroke="gray" stroke-width="0.5"/>
<text x="65" y="280.0429078014184" font-size="6.333333333333334" text-anchor="start">R1-32B</text>
<line x1="579.52" y1="248.52879329716345" x2="91.6" y2="282.60992907801415" stroke="gray" stroke-width="0.5"/>
<text x="65" y="287.9932624113475" font-size="6.333333333333334" text-anchor="start">QWQ-32B</text>
<line x1="571.36" y1="256.27475949945836" x2="106.80000000000001" y2="290.56028368794324" stroke="gray" stroke-width="0.5"/>
<text x="65" y="295.94361702127657" font-size="6.333333333333334" text-anchor="start">Gemma 2 27B</text>
<line x1="501.32" y1="256.27475949945836" x2="106.80000000000001" y2="298.5106382978723" stroke="gray" stroke-width="0.5"/>
<text x="65" y="303.8939716312056" font-size="6.333333333333334" text-anchor="start">Gemma-3-27B</text>
<line x1="593.12" y1="267.7325823590269" x2="106.80000000000001" y2="306.46099290780137" stroke="gray" stroke-width="0.5"/>
<text x="65" y="311.8443262411347" font-size="6.333333333333334" text-anchor="start">DeepSeek-v2</text>
<line x1="560.48" y1="269.9570032256147" x2="106.80000000000001" y2="314.41134751773046" stroke="gray" stroke-width="0.5"/>
<text x="65" y="319.7946808510638" font-size="6.333333333333334" text-anchor="start">GOT-OSS-20B</text>
<line x1="593.8000000000001" y1="286.21837888180505" x2="99.2" y2="322.36170212765956" stroke="gray" stroke-width="0.5"/>
<text x="65" y="327.7450354609929" font-size="6.333333333333334" text-anchor="start">Qwen3-14B</text>
<line x1="424.48" y1="289.5970787170173" x2="125.80000000000001" y2="330.3120567375886" stroke="gray" stroke-width="0.5"/>
<text x="65" y="335.6953900709219" font-size="6.333333333333334" text-anchor="start">Llama 2 Chat 13B</text>
<line x1="556.4" y1="297.2133390452881" x2="114.4" y2="338.2624113475177" stroke="gray" stroke-width="0.5"/>
<text x="65" y="343.645744680851" font-size="6.333333333333334" text-anchor="start">Llama-3.2-11B</text>
<line x1="544.8399999999999" y1="306.3622339075512" x2="103.0" y2="346.2127659574468" stroke="gray" stroke-width="0.5"/>
<text x="65" y="351.5960992907801" font-size="6.333333333333334" text-anchor="start">Gemma 2 9B</text>
<line x1="531.9200000000001" y1="311.7321490677927" x2="110.6" y2="354.16312056737587" stroke="gray" stroke-width="0.5"/>
<text x="65" y="359.5464539007092" font-size="6.333333333333334" text-anchor="start">Llama 3.1 8B</text>
<line x1="512.8799999999999" y1="311.7321490677927" x2="103.0" y2="362.1134751773049" stroke="gray" stroke-width="0.5"/>
<text x="65" y="367.49680851063823" font-size="6.333333333333334" text-anchor="start">Llama 3 8B</text>
<line x1="497.92" y1="311.7321490677927" x2="95.4" y2="370.063829787234" stroke="gray" stroke-width="0.5"/>
<text x="65" y="375.4471631205673" font-size="6.333333333333334" text-anchor="start">Gemma 8B</text>
<line x1="567.96" y1="311.7321490677927" x2="95.4" y2="378.0141843971631" stroke="gray" stroke-width="0.5"/>
<text x="65" y="383.3975177304964" font-size="6.333333333333334" text-anchor="start">Qwen3-8B</text>
<line x1="485.0" y1="317.82005676711964" x2="103.0" y2="385.9645390070921" stroke="gray" stroke-width="0.5"/>
<text x="65" y="391.34787234042545" font-size="6.333333333333334" text-anchor="start">Mistral 7B</text>
<line x1="371.44" y1="317.82005676711964" x2="122.0" y2="393.9148936170212" stroke="gray" stroke-width="0.5"/>
<text x="65" y="399.29822695035455" font-size="6.333333333333334" text-anchor="start">Llama 2 Chat 7B</text>
<line x1="491.12" y1="356.4497083156439" x2="110.6" y2="401.8652482269503" stroke="gray" stroke-width="0.5"/>
<text x="65" y="407.24858156028364" font-size="6.333333333333334" text-anchor="start">Llama 3.2 3B</text>
<line x1="242.24" y1="356.4497083156439" x2="122.0" y2="409.8156028368794" stroke="gray" stroke-width="0.5"/>
<text x="65" y="415.19893617021273" font-size="6.333333333333334" text-anchor="start">AppleOpenElm 3B</text>
<line x1="485.88400000000007" y1="382.34500025915776" x2="103.0" y2="417.76595744680844" stroke="gray" stroke-width="0.5"/>
<text x="65" y="423.14929078014177" font-size="6.333333333333334" text-anchor="start">Qwen3-1.7B</text>
<line x1="244.28" y1="402.19184065809543" x2="133.4" y2="425.71631205673754" stroke="gray" stroke-width="0.5"/>
<text x="65" y="431.09964539007086" font-size="6.333333333333334" text-anchor="start">Apple OpenElm 1.1B</text>
<line x1="395.24" y1="406.5371827237366" x2="110.6" y2="440.0" stroke="gray" stroke-width="0.5"/>
<text x="65" y="439.04999999999995" font-size="6.333333333333334" text-anchor="start">Llama 3.2 1B</text>
<line x1="677.4399999999999" y1="109.79208808121732" x2="682.4399999999999" y2="109.79208808121732" stroke="gray" stroke-width="0.5"/>
<text x="682.4399999999999" y="112.84451232364157" font-size="8.721212121212131" text-anchor="start">Deepseek-R1</text>
<line x1="670.64" y1="248.52879329716345" x2="675.64" y2="248.52879329716345" stroke="gray" stroke-width="0.5"/>
<text x="675.64" y="252.02879329716345" font-size="10" text-anchor="start">Qwen3-32B</text>
<line x1="532.5999999999999" y1="343.33382695310735" x2="537.5999999999999" y2="343.33382695310735" stroke="gray" stroke-width="0.5"/>
<text x="537.5999999999999" y="346.83382695310735" font-size="10" text-anchor="start">Qwen3-4B</text>
<line x1="419.108" y1="429.8265320431366" x2="424.108" y2="429.8265320431366" stroke="gray" stroke-width="0.5"/>
<text x="424.108" y="433.3265320431366" font-size="10" text-anchor="start">Qwen3-0.6B</text>
<text x="400.0" y="30.0" font-size="14" text-anchor="middle" font-weight="bold">MMLU Score vs. Parameter Count</text>
<text x="400.0" y="490" font-size="10" text-anchor="middle">MMLU Score (Average Undergrad Scores 90%)</text>
<text x="15" y="250.0" font-size="10" text-anchor="middle" transform="rotate(-90,15,250.0)">Parameters (log scale)</text>
</svg>
