<svg width="800" height="500" xmlns="http://www.w3.org/2000/svg" font-family="sans-serif">
<rect x="0" y="0" width="800" height="500" fill="white"/>
<line x1="60" y1="440.0" x2="740" y2="440.0" stroke="black"/>
<line x1="60" y1="60" x2="60" y2="440" stroke="black"/>
<line x1="60.0" y1="440.0" x2="60.0" y2="445.0" stroke="black"/>
<text x="60.0" y="460.0" font-size="8" text-anchor="middle">0</text>
<line x1="94.0" y1="440.0" x2="94.0" y2="445.0" stroke="black"/>
<text x="94.0" y="460.0" font-size="8" text-anchor="middle">5</text>
<line x1="128.0" y1="440.0" x2="128.0" y2="445.0" stroke="black"/>
<text x="128.0" y="460.0" font-size="8" text-anchor="middle">10</text>
<line x1="162.0" y1="440.0" x2="162.0" y2="445.0" stroke="black"/>
<text x="162.0" y="460.0" font-size="8" text-anchor="middle">15</text>
<line x1="196.0" y1="440.0" x2="196.0" y2="445.0" stroke="black"/>
<text x="196.0" y="460.0" font-size="8" text-anchor="middle">20</text>
<line x1="230.0" y1="440.0" x2="230.0" y2="445.0" stroke="black"/>
<text x="230.0" y="460.0" font-size="8" text-anchor="middle">25</text>
<line x1="264.0" y1="440.0" x2="264.0" y2="445.0" stroke="black"/>
<text x="264.0" y="460.0" font-size="8" text-anchor="middle">30</text>
<line x1="298.0" y1="440.0" x2="298.0" y2="445.0" stroke="black"/>
<text x="298.0" y="460.0" font-size="8" text-anchor="middle">35</text>
<line x1="332.0" y1="440.0" x2="332.0" y2="445.0" stroke="black"/>
<text x="332.0" y="460.0" font-size="8" text-anchor="middle">40</text>
<line x1="366.0" y1="440.0" x2="366.0" y2="445.0" stroke="black"/>
<text x="366.0" y="460.0" font-size="8" text-anchor="middle">45</text>
<line x1="400.0" y1="440.0" x2="400.0" y2="445.0" stroke="black"/>
<text x="400.0" y="460.0" font-size="8" text-anchor="middle">50</text>
<line x1="434.00000000000006" y1="440.0" x2="434.00000000000006" y2="445.0" stroke="black"/>
<text x="434.00000000000006" y="460.0" font-size="8" text-anchor="middle">55</text>
<line x1="468.0" y1="440.0" x2="468.0" y2="445.0" stroke="black"/>
<text x="468.0" y="460.0" font-size="8" text-anchor="middle">60</text>
<line x1="502.0" y1="440.0" x2="502.0" y2="445.0" stroke="black"/>
<text x="502.0" y="460.0" font-size="8" text-anchor="middle">65</text>
<line x1="536.0" y1="440.0" x2="536.0" y2="445.0" stroke="black"/>
<text x="536.0" y="460.0" font-size="8" text-anchor="middle">70</text>
<line x1="570.0" y1="440.0" x2="570.0" y2="445.0" stroke="black"/>
<text x="570.0" y="460.0" font-size="8" text-anchor="middle">75</text>
<line x1="604.0" y1="440.0" x2="604.0" y2="445.0" stroke="black"/>
<text x="604.0" y="460.0" font-size="8" text-anchor="middle">80</text>
<line x1="638.0" y1="440.0" x2="638.0" y2="445.0" stroke="black"/>
<text x="638.0" y="460.0" font-size="8" text-anchor="middle">85</text>
<line x1="672.0" y1="440.0" x2="672.0" y2="445.0" stroke="black"/>
<text x="672.0" y="460.0" font-size="8" text-anchor="middle">90</text>
<line x1="706.0" y1="440.0" x2="706.0" y2="445.0" stroke="black"/>
<text x="706.0" y="460.0" font-size="8" text-anchor="middle">95</text>
<line x1="740.0" y1="440.0" x2="740.0" y2="445.0" stroke="black"/>
<text x="740.0" y="460.0" font-size="8" text-anchor="middle">100</text>
<line x1="60" y1="440.0" x2="55" y2="440.0" stroke="black"/>
<text x="50" y="443.0" font-size="8" text-anchor="end">10^0</text>
<line x1="60" y1="324.8844147132431" x2="55" y2="324.8844147132431" stroke="black"/>
<text x="50" y="327.8844147132431" font-size="8" text-anchor="end">10^1</text>
<line x1="60" y1="209.76882942648606" x2="55" y2="209.76882942648606" stroke="black"/>
<text x="50" y="212.76882942648606" font-size="8" text-anchor="end">10^2</text>
<line x1="60" y1="94.65324413972914" x2="55" y2="94.65324413972914" stroke="black"/>
<text x="50" y="97.65324413972914" font-size="8" text-anchor="end">10^3</text>
<line x1="60" y1="-20.462341147027857" x2="55" y2="-20.462341147027857" stroke="black"/>
<text x="50" y="-17.462341147027857" font-size="8" text-anchor="end">10^4</text>
<circle cx="395.24" cy="440.0" r="3" fill="red"/>
<circle cx="244.28" cy="435.23505682142047" r="3" fill="blue"/>
<circle cx="491.12" cy="385.0759075101942" r="3" fill="red"/>
<circle cx="485.0" cy="342.71604449906766" r="3" fill="blue"/>
<circle cx="242.24" cy="385.0759075101942" r="3" fill="blue"/>
<circle cx="531.9200000000001" cy="336.0402675808127" r="3" fill="blue"/>
<circle cx="626.4399999999999" cy="266.7337793013545" r="3" fill="blue"/>
<circle cx="512.8799999999999" cy="336.0402675808127" r="3" fill="blue"/>
<circle cx="497.92" cy="336.0402675808127" r="3" fill="blue"/>
<circle cx="544.8399999999999" cy="330.15181502038837" r="3" fill="blue"/>
<circle cx="556.4" cy="320.1194715346635" r="3" fill="blue"/>
<circle cx="371.44" cy="342.71604449906766" r="3" fill="blue"/>
<circle cx="424.48" cy="311.7677590229064" r="3" fill="blue"/>
<circle cx="571.36" cy="275.2277225305826" r="3" fill="blue"/>
<circle cx="567.96" cy="260.8453267409302" r="3" fill="blue"/>
<circle cx="548.9200000000001" cy="256.84366653310053" r="3" fill="blue"/>
<circle cx="644.8" cy="227.60045921231068" r="3" fill="blue"/>
<circle cx="645.48" cy="226.1920826012011" r="3" fill="blue"/>
<circle cx="627.8" cy="227.60045921231068" r="3" fill="blue"/>
<circle cx="632.5600000000001" cy="226.1920826012011" r="3" fill="blue"/>
<circle cx="617.6" cy="226.1920826012011" r="3" fill="blue"/>
<circle cx="600.6" cy="227.60045921231068" r="3" fill="blue"/>
<circle cx="597.2" cy="227.60045921231068" r="3" fill="blue"/>
<circle cx="534.64" cy="227.60045921231068" r="3" fill="blue"/>
<circle cx="591.76" cy="266.7337793013545" r="3" fill="blue"/>
<circle cx="501.32" cy="275.2277225305826" r="3" fill="blue"/>
<circle cx="562.5200000000001" cy="266.7337793013545" r="3" fill="blue"/>
<circle cx="677.4399999999999" cy="114.6001826474898" r="3" fill="red"/>
<circle cx="593.12" cy="287.7919520092619" r="3" fill="blue"/>
<circle cx="652.28" cy="259.47554068632655" r="3" fill="blue"/>
<circle cx="644.8" cy="215.03622973363144" r="3" fill="blue"/>
<circle cx="536.0" cy="184.13069249733093" r="3" fill="blue"/>
<circle cx="556.4" cy="152.5644821421958" r="3" fill="blue"/>
<circle cx="595.16" cy="148.58732282359517" r="3" fill="blue"/>
<circle cx="579.52" cy="266.7337793013545" r="3" fill="blue"/>
<circle cx="657.04" cy="166.41895260941976" r="3" fill="blue"/>
<circle cx="532.5999999999999" cy="370.6935117205418" r="3" fill="red"/>
<circle cx="567.96" cy="336.0402675808127" r="3" fill="red"/>
<circle cx="593.8000000000001" cy="308.06280035933855" r="3" fill="red"/>
<circle cx="670.64" cy="266.7337793013545" r="3" fill="red"/>
<circle cx="639.36" cy="139.84128889374898" r="3" fill="blue"/>
<circle cx="672.0" cy="72.42159296688541" r="3" fill="blue"/>
<circle cx="614.88" cy="65.26740030714538" r="3" fill="blue"/>
<circle cx="623.72" cy="65.26740030714538" r="3" fill="blue"/>
<circle cx="663.16" cy="65.26740030714538" r="3" fill="blue"/>
<circle cx="647.5200000000001" cy="65.26740030714538" r="3" fill="blue"/>
<circle cx="650.24" cy="60.0" r="3" fill="blue"/>
<circle cx="666.5600000000001" cy="167.0531352799694" r="3" fill="blue"/>
<circle cx="560.48" cy="290.23117057351396" r="3" fill="blue"/>
<circle cx="599.2399999999999" cy="200.65383394397904" r="3" fill="blue"/>
<polyline fill="none" stroke="gray" stroke-width="1" points="395.24,440.0 491.12,385.0759075101942 532.5999999999999,370.6935117205418 567.96,336.0402675808127 593.8000000000001,308.06280035933855 670.64,266.7337793013545 677.4399999999999,114.6001826474898"/>
<line x1="650.24" y1="60.0" x2="120.14418604651163" y2="56.46511627906977" stroke="gray" stroke-width="0.5"/>
<text x="65" y="62.47441860465116" font-size="7.069767441860465" text-anchor="start">Claude 3 Opus</text>
<line x1="614.88" y1="65.26740030714538" x2="111.66046511627906" y2="65.5127353266888" stroke="gray" stroke-width="0.5"/>
<text x="65" y="71.5220376522702" font-size="7.069767441860465" text-anchor="start">GPT-04-mini</text>
<line x1="623.72" y1="65.26740030714538" x2="90.45116279069768" y2="74.56035437430786" stroke="gray" stroke-width="0.5"/>
<text x="65" y="80.56965669988926" font-size="7.069767441860465" text-anchor="start">GPT-o3</text>
<line x1="663.16" y1="65.26740030714538" x2="90.45116279069768" y2="83.6079734219269" stroke="gray" stroke-width="0.5"/>
<text x="65" y="89.6172757475083" font-size="7.069767441860465" text-anchor="start">GPT-4o</text>
<line x1="647.5200000000001" y1="65.26740030714538" x2="86.20930232558139" y2="92.65559246954597" stroke="gray" stroke-width="0.5"/>
<text x="65" y="98.66489479512737" font-size="7.069767441860465" text-anchor="start">GPT-4</text>
<line x1="672.0" y1="72.42159296688541" x2="115.90232558139536" y2="101.703211517165" stroke="gray" stroke-width="0.5"/>
<text x="65" y="107.7125138427464" font-size="7.069767441860465" text-anchor="start">Gemini Ultra</text>
<line x1="639.36" y1="139.84128889374898" x2="115.90232558139536" y2="110.75083056478404" stroke="gray" stroke-width="0.5"/>
<text x="65" y="116.76013289036544" font-size="7.069767441860465" text-anchor="start">Llama 3 405B</text>
<line x1="595.16" y1="148.58732282359517" x2="166.80465116279072" y2="119.7984496124031" stroke="gray" stroke-width="0.5"/>
<text x="65" y="125.8077519379845" font-size="7.069767441860465" text-anchor="start">Nemotron-4-340B-Instruct</text>
<line x1="556.4" y1="152.5644821421958" x2="90.45116279069768" y2="128.84606866002215" stroke="gray" stroke-width="0.5"/>
<text x="65" y="134.85537098560354" font-size="7.069767441860465" text-anchor="start">Grok-1</text>
<line x1="657.04" y1="166.41895260941976" x2="111.66046511627906" y2="137.89368770764122" stroke="gray" stroke-width="0.5"/>
<text x="65" y="143.9029900332226" font-size="7.069767441860465" text-anchor="start">Qwen 3-235B</text>
<line x1="666.5600000000001" y1="167.0531352799694" x2="107.41860465116278" y2="146.94130675526026" stroke="gray" stroke-width="0.5"/>
<text x="65" y="152.95060908084164" font-size="7.069767441860465" text-anchor="start">Qwen3-235B</text>
<line x1="536.0" y1="184.13069249733093" x2="94.69302325581396" y2="155.9889258028793" stroke="gray" stroke-width="0.5"/>
<text x="65" y="161.99822812846068" font-size="7.069767441860465" text-anchor="start">GPT-3.5</text>
<line x1="599.2399999999999" y1="200.65383394397904" x2="115.90232558139536" y2="165.03654485049833" stroke="gray" stroke-width="0.5"/>
<text x="65" y="171.04584717607972" font-size="7.069767441860465" text-anchor="start">GPT-OSS-120B</text>
<line x1="644.8" y1="215.03622973363144" x2="120.14418604651163" y2="174.0841638981174" stroke="gray" stroke-width="0.5"/>
<text x="65" y="180.09346622369878" font-size="7.069767441860465" text-anchor="start">Llama-3.2-90B</text>
<line x1="645.48" y1="226.1920826012011" x2="111.66046511627906" y2="183.13178294573646" stroke="gray" stroke-width="0.5"/>
<text x="65" y="189.14108527131785" font-size="7.069767441860465" text-anchor="start">Qwen2.5 72B</text>
<line x1="632.5600000000001" y1="226.1920826012011" x2="103.1767441860465" y2="192.1794019933555" stroke="gray" stroke-width="0.5"/>
<text x="65" y="198.18870431893689" font-size="7.069767441860465" text-anchor="start">Qwen2 72B</text>
<line x1="617.6" y1="226.1920826012011" x2="107.41860465116278" y2="201.22702104097453" stroke="gray" stroke-width="0.5"/>
<text x="65" y="207.23632336655592" font-size="7.069767441860465" text-anchor="start">NVLM-D-72B</text>
<line x1="644.8" y1="227.60045921231068" x2="120.14418604651163" y2="210.27464008859357" stroke="gray" stroke-width="0.5"/>
<text x="65" y="216.28394241417496" font-size="7.069767441860465" text-anchor="start">Llama 3.1 70B</text>
<line x1="627.8" y1="227.60045921231068" x2="209.22325581395347" y2="219.32225913621264" stroke="gray" stroke-width="0.5"/>
<text x="65" y="225.33156146179402" font-size="7.069767441860465" text-anchor="start">Llama-3.1-Nemotron-70B-Instruct-HF</text>
<line x1="600.6" y1="227.60045921231068" x2="111.66046511627906" y2="228.36987818383167" stroke="gray" stroke-width="0.5"/>
<text x="65" y="234.37918050941306" font-size="7.069767441860465" text-anchor="start">Llama 3 70B</text>
<line x1="597.2" y1="227.60045921231068" x2="128.62790697674419" y2="237.41749723145074" stroke="gray" stroke-width="0.5"/>
<text x="65" y="243.42679955703213" font-size="7.069767441860465" text-anchor="start">Claude 3 Sonnet</text>
<line x1="534.64" y1="227.60045921231068" x2="128.62790697674419" y2="246.46511627906978" stroke="gray" stroke-width="0.5"/>
<text x="65" y="252.47441860465116" font-size="7.069767441860465" text-anchor="start">LLaMA2-70B Base</text>
<line x1="548.9200000000001" y1="256.84366653310053" x2="141.353488372093" y2="255.5127353266888" stroke="gray" stroke-width="0.5"/>
<text x="65" y="261.52203765227017" font-size="7.069767441860465" text-anchor="start">Mixtral Large Base</text>
<line x1="652.28" y1="259.47554068632655" x2="111.66046511627906" y2="264.56035437430785" stroke="gray" stroke-width="0.5"/>
<text x="65" y="270.5696566998892" font-size="7.069767441860465" text-anchor="start">Deepseek-v3</text>
<line x1="567.96" y1="260.8453267409302" x2="81.96744186046512" y2="273.60797342192694" stroke="gray" stroke-width="0.5"/>
<text x="65" y="279.6172757475083" font-size="7.069767441860465" text-anchor="start">DBRX</text>
<line x1="626.4399999999999" y1="266.7337793013545" x2="111.66046511627906" y2="282.655592469546" stroke="gray" stroke-width="0.5"/>
<text x="65" y="288.66489479512734" font-size="7.069767441860465" text-anchor="start">Qwen2.5-32b</text>
<line x1="591.76" y1="266.7337793013545" x2="94.69302325581396" y2="291.703211517165" stroke="gray" stroke-width="0.5"/>
<text x="65" y="297.7125138427464" font-size="7.069767441860465" text-anchor="start">QwQ-32B</text>
<line x1="562.5200000000001" y1="266.7337793013545" x2="90.45116279069768" y2="300.75083056478405" stroke="gray" stroke-width="0.5"/>
<text x="65" y="306.7601328903654" font-size="7.069767441860465" text-anchor="start">R1-32B</text>
<line x1="579.52" y1="266.7337793013545" x2="94.69302325581396" y2="309.7984496124031" stroke="gray" stroke-width="0.5"/>
<text x="65" y="315.80775193798445" font-size="7.069767441860465" text-anchor="start">QWQ-32B</text>
<line x1="571.36" y1="275.2277225305826" x2="111.66046511627906" y2="318.8460686600222" stroke="gray" stroke-width="0.5"/>
<text x="65" y="324.85537098560354" font-size="7.069767441860465" text-anchor="start">Gemma 2 27B</text>
<line x1="501.32" y1="275.2277225305826" x2="111.66046511627906" y2="327.8936877076412" stroke="gray" stroke-width="0.5"/>
<text x="65" y="333.9029900332226" font-size="7.069767441860465" text-anchor="start">Gemma-3-27B</text>
<line x1="593.12" y1="287.7919520092619" x2="111.66046511627906" y2="336.94130675526026" stroke="gray" stroke-width="0.5"/>
<text x="65" y="342.9506090808416" font-size="7.069767441860465" text-anchor="start">DeepSeek-v2</text>
<line x1="560.48" y1="290.23117057351396" x2="111.66046511627906" y2="345.9889258028793" stroke="gray" stroke-width="0.5"/>
<text x="65" y="351.99822812846065" font-size="7.069767441860465" text-anchor="start">GOT-OSS-20B</text>
<line x1="424.48" y1="311.7677590229064" x2="132.86976744186046" y2="355.03654485049833" stroke="gray" stroke-width="0.5"/>
<text x="65" y="361.0458471760797" font-size="7.069767441860465" text-anchor="start">Llama 2 Chat 13B</text>
<line x1="556.4" y1="320.1194715346635" x2="120.14418604651163" y2="364.08416389811737" stroke="gray" stroke-width="0.5"/>
<text x="65" y="370.0934662236987" font-size="7.069767441860465" text-anchor="start">Llama-3.2-11B</text>
<line x1="544.8399999999999" y1="330.15181502038837" x2="107.41860465116278" y2="373.1317829457364" stroke="gray" stroke-width="0.5"/>
<text x="65" y="379.14108527131776" font-size="7.069767441860465" text-anchor="start">Gemma 2 9B</text>
<line x1="531.9200000000001" y1="336.0402675808127" x2="115.90232558139536" y2="382.1794019933555" stroke="gray" stroke-width="0.5"/>
<text x="65" y="388.18870431893686" font-size="7.069767441860465" text-anchor="start">Llama 3.1 8B</text>
<line x1="512.8799999999999" y1="336.0402675808127" x2="107.41860465116278" y2="391.22702104097453" stroke="gray" stroke-width="0.5"/>
<text x="65" y="397.2363233665559" font-size="7.069767441860465" text-anchor="start">Llama 3 8B</text>
<line x1="497.92" y1="336.0402675808127" x2="98.93488372093023" y2="400.27464008859357" stroke="gray" stroke-width="0.5"/>
<text x="65" y="406.28394241417493" font-size="7.069767441860465" text-anchor="start">Gemma 8B</text>
<line x1="485.0" y1="342.71604449906766" x2="107.41860465116278" y2="409.32225913621266" stroke="gray" stroke-width="0.5"/>
<text x="65" y="415.331561461794" font-size="7.069767441860465" text-anchor="start">Mistral 7B</text>
<line x1="371.44" y1="342.71604449906766" x2="128.62790697674419" y2="418.3698781838317" stroke="gray" stroke-width="0.5"/>
<text x="65" y="424.37918050941306" font-size="7.069767441860465" text-anchor="start">Llama 2 Chat 7B</text>
<line x1="242.24" y1="385.0759075101942" x2="128.62790697674419" y2="427.41749723145074" stroke="gray" stroke-width="0.5"/>
<text x="65" y="433.4267995570321" font-size="7.069767441860465" text-anchor="start">AppleOpenElm 3B</text>
<line x1="244.28" y1="435.23505682142047" x2="141.353488372093" y2="436.4651162790698" stroke="gray" stroke-width="0.5"/>
<text x="65" y="442.47441860465113" font-size="7.069767441860465" text-anchor="start">Apple OpenElm 1.1B</text>
<line x1="677.4399999999999" y1="114.6001826474898" x2="669.0" y2="55.0" stroke="gray" stroke-width="0.5"/>
<text x="735" y="63.5" font-size="10" text-anchor="end">Deepseek-R1</text>
<line x1="670.64" y1="266.7337793013545" x2="681.0" y2="118.33333333333333" stroke="gray" stroke-width="0.5"/>
<text x="735" y="126.83333333333333" font-size="10" text-anchor="end">Qwen3-32B</text>
<line x1="593.8000000000001" y1="308.06280035933855" x2="681.0" y2="181.66666666666666" stroke="gray" stroke-width="0.5"/>
<text x="735" y="190.16666666666666" font-size="10" text-anchor="end">Qwen3-14B</text>
<line x1="567.96" y1="336.0402675808127" x2="687.0" y2="245.0" stroke="gray" stroke-width="0.5"/>
<text x="735" y="253.5" font-size="10" text-anchor="end">Qwen3-8B</text>
<line x1="532.5999999999999" y1="370.6935117205418" x2="687.0" y2="308.3333333333333" stroke="gray" stroke-width="0.5"/>
<text x="735" y="316.8333333333333" font-size="10" text-anchor="end">Qwen3-4B</text>
<line x1="491.12" y1="385.0759075101942" x2="663.0" y2="371.6666666666667" stroke="gray" stroke-width="0.5"/>
<text x="735" y="380.1666666666667" font-size="10" text-anchor="end">Llama 3.2 3B</text>
<line x1="395.24" y1="440.0" x2="663.0" y2="435.0" stroke="gray" stroke-width="0.5"/>
<text x="735" y="443.5" font-size="10" text-anchor="end">Llama 3.2 1B</text>
<text x="400.0" y="30.0" font-size="14" text-anchor="middle" font-weight="bold">MMLU Score vs. Parameter Count</text>
<text x="400.0" y="490" font-size="10" text-anchor="middle">MMLU Score (%25)</text>
<text x="15" y="250.0" font-size="10" text-anchor="middle" transform="rotate(-90,15,250.0)">Parameters (log scale)</text>
</svg>
